G04*
G04 #@! TF.GenerationSoftware,Altium Limited,Altium Designer,19.0.15 (446)*
G04*
G04 Layer_Color=128*
%FSLAX25Y25*%
%MOIN*%
G70*
G01*
G75*
%ADD45C,0.00200*%
D45*
X275933Y95500D02*
X280067D01*
X278000Y93433D02*
Y97567D01*
X285933Y95500D02*
X290067D01*
X288000Y93433D02*
Y97567D01*
X295933Y95500D02*
X300067D01*
X298000Y93433D02*
Y97567D01*
X221866Y217315D02*
X230134D01*
X226000Y213181D02*
Y221449D01*
X221866Y256685D02*
X230134D01*
X226000Y252551D02*
Y260819D01*
X161700Y17500D02*
X174300D01*
X168000Y11200D02*
Y23800D01*
X161700Y430000D02*
X174300D01*
X168000Y423700D02*
Y436300D01*
X30700Y17500D02*
X43300D01*
X37000Y11200D02*
Y23800D01*
X30700Y430000D02*
X43300D01*
X37000Y423700D02*
Y436300D01*
X292200Y430000D02*
X304800D01*
X298500Y423700D02*
Y436300D01*
X292200Y17500D02*
X304800D01*
X298500Y11200D02*
Y23800D01*
X156850Y99000D02*
X164150D01*
X160500Y95350D02*
Y102650D01*
X119350Y99000D02*
X126650D01*
X123000Y95350D02*
Y102650D01*
X78327Y151000D02*
X81673D01*
X80000Y149327D02*
Y152673D01*
X78327Y161000D02*
X81673D01*
X80000Y159327D02*
Y162673D01*
X78327Y171000D02*
X81673D01*
X80000Y169327D02*
Y172673D01*
X301508Y60000D02*
X314894D01*
X308201Y53307D02*
Y66693D01*
X273307Y60000D02*
X286693D01*
X280000Y53307D02*
Y66693D01*
X310394Y152689D02*
X314606D01*
X312500Y150583D02*
Y154795D01*
X310394Y164500D02*
X314606D01*
X312500Y162394D02*
Y166606D01*
X302185Y176311D02*
X307382D01*
X304784Y173713D02*
Y178909D01*
X302185Y140878D02*
X307382D01*
X304784Y138279D02*
Y143476D01*
X310394Y196500D02*
X314606D01*
X312500Y194394D02*
Y198606D01*
X310394Y208311D02*
X314606D01*
X312500Y206205D02*
Y210417D01*
X302185Y220122D02*
X307382D01*
X304784Y217524D02*
Y222721D01*
X302185Y184689D02*
X307382D01*
X304784Y182091D02*
Y187287D01*
X26350Y100000D02*
X33650D01*
X30000Y96350D02*
Y103650D01*
X63850Y100000D02*
X71150D01*
X67500Y96350D02*
Y103650D01*
X203807Y59878D02*
X217193D01*
X210500Y53185D02*
Y66571D01*
X232008Y59878D02*
X245394D01*
X238701Y53185D02*
Y66571D01*
X203807Y100378D02*
X217193D01*
X210500Y93685D02*
Y107071D01*
X232008Y100378D02*
X245394D01*
X238701Y93685D02*
Y107071D01*
X103457Y382000D02*
X116913D01*
X110185Y375272D02*
Y388728D01*
X103457Y337906D02*
X116913D01*
X110185Y331178D02*
Y344633D01*
X103457Y281213D02*
X116913D01*
X110185Y274485D02*
Y287940D01*
X103457Y237118D02*
X116913D01*
X110185Y230391D02*
Y243846D01*
X33772Y382000D02*
X47228D01*
X40500Y375272D02*
Y388728D01*
X33772Y237118D02*
X47228D01*
X40500Y230391D02*
Y243846D01*
X273335Y378000D02*
X277665D01*
X275500Y375835D02*
Y380165D01*
X273335Y338000D02*
X277665D01*
X275500Y335835D02*
Y340165D01*
X221366Y323000D02*
X229634D01*
X225500Y318866D02*
Y327134D01*
X181366Y393000D02*
X189634D01*
X185500Y388866D02*
Y397134D01*
X37827Y171000D02*
X41173D01*
X39500Y169327D02*
Y172673D01*
X37827Y161000D02*
X41173D01*
X39500Y159327D02*
Y162673D01*
X37827Y151000D02*
X41173D01*
X39500Y149327D02*
Y152673D01*
M02*
