G04*
G04 #@! TF.GenerationSoftware,Altium Limited,Altium Designer,19.0.15 (446)*
G04*
G04 Layer_Physical_Order=2*
G04 Layer_Color=16711680*
%FSLAX25Y25*%
%MOIN*%
G70*
G01*
G75*
%ADD10C,0.01000*%
%ADD34R,0.06201X0.06201*%
%ADD35C,0.06201*%
%ADD36C,0.20000*%
%ADD37C,0.06000*%
%ADD38C,0.10949*%
%ADD39C,0.05315*%
%ADD40R,0.20079X0.20079*%
%ADD41C,0.20079*%
%ADD42C,0.06378*%
%ADD43C,0.05197*%
%ADD44C,0.21378*%
%ADD45C,0.06496*%
%ADD46C,0.12402*%
%ADD47C,0.38000*%
G36*
X316714Y447733D02*
X318496Y447330D01*
X320211Y446699D01*
X321830Y445851D01*
X323325Y444800D01*
X324672Y443565D01*
X325846Y442165D01*
X326830Y440625D01*
X327605Y438970D01*
X328160Y437229D01*
X328484Y435430D01*
X328528Y434515D01*
X328528Y434508D01*
X328529Y434502D01*
X328529Y434496D01*
Y434473D01*
X328525Y434431D01*
X328518Y434390D01*
X328508Y434350D01*
X328502Y434330D01*
Y15500D01*
X328502Y15499D01*
Y15497D01*
X328502Y15497D01*
X328501Y14448D01*
X328227Y12369D01*
X327684Y10343D01*
X326881Y8405D01*
X325832Y6589D01*
X324555Y4925D01*
X323072Y3443D01*
X321408Y2166D01*
X319592Y1118D01*
X317654Y315D01*
X315628Y-228D01*
X313549Y-501D01*
X11495D01*
X11485Y-501D01*
X11475Y-501D01*
X11465Y-500D01*
X10609Y-432D01*
X8939Y-75D01*
X7329Y497D01*
X5808Y1274D01*
X4402Y2242D01*
X3133Y3386D01*
X2025Y4685D01*
X1095Y6118D01*
X360Y7659D01*
X-167Y9284D01*
X-479Y10963D01*
X-568Y12669D01*
X-501Y13520D01*
Y438000D01*
Y438972D01*
X-122Y440879D01*
X622Y442674D01*
X1702Y444291D01*
X3076Y445666D01*
X4693Y446745D01*
X6488Y447489D01*
X8395Y447869D01*
X313844D01*
X313865Y447868D01*
X313886Y447866D01*
X313907Y447863D01*
X313917Y447862D01*
X313925Y447863D01*
X313941Y447865D01*
X313957Y447867D01*
X313973Y447868D01*
X314894Y447902D01*
X316714Y447733D01*
D02*
G37*
%LPC*%
G36*
X298500Y437335D02*
X297069Y437194D01*
X295693Y436777D01*
X294425Y436099D01*
X293313Y435187D01*
X292401Y434075D01*
X291723Y432807D01*
X291306Y431431D01*
X291165Y430000D01*
X291306Y428569D01*
X291723Y427193D01*
X292401Y425925D01*
X293313Y424813D01*
X294425Y423901D01*
X295693Y423223D01*
X297069Y422806D01*
X298500Y422665D01*
X299931Y422806D01*
X301307Y423223D01*
X302575Y423901D01*
X303687Y424813D01*
X304599Y425925D01*
X305277Y427193D01*
X305694Y428569D01*
X305835Y430000D01*
X305694Y431431D01*
X305277Y432807D01*
X304599Y434075D01*
X303687Y435187D01*
X302575Y436099D01*
X301307Y436777D01*
X299931Y437194D01*
X298500Y437335D01*
D02*
G37*
G36*
X168000D02*
X166569Y437194D01*
X165193Y436777D01*
X163925Y436099D01*
X162813Y435187D01*
X161901Y434075D01*
X161223Y432807D01*
X160806Y431431D01*
X160665Y430000D01*
X160806Y428569D01*
X161223Y427193D01*
X161901Y425925D01*
X162813Y424813D01*
X163925Y423901D01*
X165193Y423223D01*
X166569Y422806D01*
X168000Y422665D01*
X169431Y422806D01*
X170807Y423223D01*
X172075Y423901D01*
X173187Y424813D01*
X174099Y425925D01*
X174777Y427193D01*
X175194Y428569D01*
X175335Y430000D01*
X175194Y431431D01*
X174777Y432807D01*
X174099Y434075D01*
X173187Y435187D01*
X172075Y436099D01*
X170807Y436777D01*
X169431Y437194D01*
X168000Y437335D01*
D02*
G37*
G36*
X37000D02*
X35569Y437194D01*
X34193Y436777D01*
X32925Y436099D01*
X31813Y435187D01*
X30901Y434075D01*
X30223Y432807D01*
X29806Y431431D01*
X29665Y430000D01*
X29806Y428569D01*
X30223Y427193D01*
X30901Y425925D01*
X31813Y424813D01*
X32925Y423901D01*
X34193Y423223D01*
X35569Y422806D01*
X37000Y422665D01*
X38431Y422806D01*
X39807Y423223D01*
X41075Y423901D01*
X42187Y424813D01*
X43099Y425925D01*
X43777Y427193D01*
X44194Y428569D01*
X44335Y430000D01*
X44194Y431431D01*
X43777Y432807D01*
X43099Y434075D01*
X42187Y435187D01*
X41075Y436099D01*
X39807Y436777D01*
X38431Y437194D01*
X37000Y437335D01*
D02*
G37*
G36*
X41000Y393686D02*
Y382500D01*
X52186D01*
X52081Y383834D01*
X51651Y385623D01*
X50947Y387323D01*
X49986Y388892D01*
X48791Y390291D01*
X47392Y391486D01*
X45823Y392447D01*
X44123Y393151D01*
X42334Y393581D01*
X41000Y393686D01*
D02*
G37*
G36*
X40000D02*
X38666Y393581D01*
X36877Y393151D01*
X35177Y392447D01*
X33608Y391486D01*
X32209Y390291D01*
X31014Y388892D01*
X30053Y387323D01*
X29349Y385623D01*
X28919Y383834D01*
X28814Y382500D01*
X40000D01*
Y393686D01*
D02*
G37*
G36*
X276000Y382219D02*
Y378500D01*
X279719D01*
X279639Y379109D01*
X279211Y380142D01*
X278530Y381030D01*
X277642Y381711D01*
X276609Y382139D01*
X276000Y382219D01*
D02*
G37*
G36*
X275000D02*
X274391Y382139D01*
X273358Y381711D01*
X272470Y381030D01*
X271789Y380142D01*
X271361Y379109D01*
X271281Y378500D01*
X275000D01*
Y382219D01*
D02*
G37*
G36*
X279719Y377500D02*
X276000D01*
Y373781D01*
X276609Y373861D01*
X277642Y374289D01*
X278530Y374970D01*
X279211Y375858D01*
X279639Y376891D01*
X279719Y377500D01*
D02*
G37*
G36*
X275000D02*
X271281D01*
X271361Y376891D01*
X271789Y375858D01*
X272470Y374970D01*
X273358Y374289D01*
X274391Y373861D01*
X275000Y373781D01*
Y377500D01*
D02*
G37*
G36*
X52186Y381500D02*
X41000D01*
Y370314D01*
X42334Y370419D01*
X44123Y370849D01*
X45823Y371553D01*
X47392Y372514D01*
X48791Y373709D01*
X49986Y375108D01*
X50947Y376677D01*
X51651Y378377D01*
X52081Y380166D01*
X52186Y381500D01*
D02*
G37*
G36*
X40000D02*
X28814D01*
X28919Y380166D01*
X29349Y378377D01*
X30053Y376677D01*
X31014Y375108D01*
X32209Y373709D01*
X33608Y372514D01*
X35177Y371553D01*
X36877Y370849D01*
X38666Y370419D01*
X40000Y370314D01*
Y381500D01*
D02*
G37*
G36*
X110185Y393725D02*
X108351Y393581D01*
X106562Y393151D01*
X104862Y392447D01*
X103293Y391486D01*
X101894Y390291D01*
X100699Y388892D01*
X99738Y387323D01*
X99034Y385623D01*
X98604Y383834D01*
X98460Y382000D01*
X98604Y380166D01*
X99034Y378377D01*
X99738Y376677D01*
X100699Y375108D01*
X101894Y373709D01*
X103293Y372514D01*
X104862Y371553D01*
X106562Y370849D01*
X108351Y370419D01*
X110185Y370275D01*
X112019Y370419D01*
X113808Y370849D01*
X115508Y371553D01*
X117077Y372514D01*
X118476Y373709D01*
X119671Y375108D01*
X120632Y376677D01*
X121336Y378377D01*
X121766Y380166D01*
X121910Y382000D01*
X121766Y383834D01*
X121336Y385623D01*
X120632Y387323D01*
X119671Y388892D01*
X118476Y390291D01*
X117077Y391486D01*
X115508Y392447D01*
X113808Y393151D01*
X112019Y393581D01*
X110185Y393725D01*
D02*
G37*
G36*
X275500Y342285D02*
X274391Y342139D01*
X273358Y341711D01*
X272470Y341030D01*
X271789Y340142D01*
X271361Y339109D01*
X271215Y338000D01*
X271361Y336891D01*
X271789Y335858D01*
X272470Y334970D01*
X273358Y334289D01*
X274391Y333861D01*
X275500Y333715D01*
X276609Y333861D01*
X277642Y334289D01*
X278530Y334970D01*
X279211Y335858D01*
X279639Y336891D01*
X279785Y338000D01*
X279639Y339109D01*
X279211Y340142D01*
X278530Y341030D01*
X277642Y341711D01*
X276609Y342139D01*
X275500Y342285D01*
D02*
G37*
G36*
X110185Y349631D02*
X108351Y349486D01*
X106562Y349057D01*
X104862Y348353D01*
X103293Y347391D01*
X101894Y346196D01*
X100699Y344797D01*
X99738Y343229D01*
X99034Y341529D01*
X98604Y339740D01*
X98460Y337906D01*
X98604Y336071D01*
X99034Y334282D01*
X99738Y332582D01*
X100699Y331014D01*
X101894Y329615D01*
X103293Y328420D01*
X104862Y327458D01*
X106562Y326754D01*
X108351Y326325D01*
X110185Y326180D01*
X112019Y326325D01*
X113808Y326754D01*
X115508Y327458D01*
X117077Y328420D01*
X118476Y329615D01*
X119671Y331014D01*
X120632Y332582D01*
X121336Y334282D01*
X121766Y336071D01*
X121910Y337906D01*
X121766Y339740D01*
X121336Y341529D01*
X120632Y343229D01*
X119671Y344797D01*
X118476Y346196D01*
X117077Y347391D01*
X115508Y348353D01*
X113808Y349057D01*
X112019Y349486D01*
X110185Y349631D01*
D02*
G37*
G36*
X225500Y330236D02*
X224088Y330097D01*
X222731Y329685D01*
X221480Y329016D01*
X220384Y328116D01*
X219484Y327020D01*
X218815Y325769D01*
X218403Y324412D01*
X218264Y323000D01*
X218403Y321588D01*
X218815Y320231D01*
X219484Y318980D01*
X220384Y317884D01*
X221480Y316984D01*
X222731Y316315D01*
X224088Y315903D01*
X225500Y315764D01*
X226912Y315903D01*
X228269Y316315D01*
X229520Y316984D01*
X230616Y317884D01*
X231516Y318980D01*
X232185Y320231D01*
X232597Y321588D01*
X232736Y323000D01*
X232597Y324412D01*
X232185Y325769D01*
X231516Y327020D01*
X230616Y328116D01*
X229520Y329016D01*
X228269Y329685D01*
X226912Y330097D01*
X225500Y330236D01*
D02*
G37*
G36*
X110185Y292938D02*
X108351Y292793D01*
X106562Y292364D01*
X104862Y291660D01*
X103293Y290698D01*
X101894Y289504D01*
X100699Y288104D01*
X99738Y286536D01*
X99034Y284836D01*
X98604Y283047D01*
X98460Y281213D01*
X98604Y279378D01*
X99034Y277589D01*
X99738Y275889D01*
X100699Y274321D01*
X101894Y272922D01*
X103293Y271727D01*
X104862Y270765D01*
X106562Y270061D01*
X108351Y269632D01*
X110185Y269488D01*
X112019Y269632D01*
X113808Y270061D01*
X115508Y270765D01*
X117077Y271727D01*
X118476Y272922D01*
X119671Y274321D01*
X120632Y275889D01*
X121336Y277589D01*
X121766Y279378D01*
X121910Y281213D01*
X121766Y283047D01*
X121336Y284836D01*
X120632Y286536D01*
X119671Y288104D01*
X118476Y289504D01*
X117077Y290698D01*
X115508Y291660D01*
X113808Y292364D01*
X112019Y292793D01*
X110185Y292938D01*
D02*
G37*
G36*
X226500Y267680D02*
Y257185D01*
X236995D01*
X236898Y258411D01*
X236494Y260095D01*
X235831Y261694D01*
X234927Y263171D01*
X233802Y264487D01*
X232486Y265612D01*
X231009Y266516D01*
X229410Y267179D01*
X227726Y267583D01*
X226500Y267680D01*
D02*
G37*
G36*
X225500D02*
X224274Y267583D01*
X222590Y267179D01*
X220991Y266516D01*
X219514Y265612D01*
X218198Y264487D01*
X217073Y263171D01*
X216169Y261694D01*
X215506Y260095D01*
X215102Y258411D01*
X215005Y257185D01*
X225500D01*
Y267680D01*
D02*
G37*
G36*
X185500Y413043D02*
X182884Y412871D01*
X180313Y412360D01*
X177830Y411517D01*
X175478Y410358D01*
X173299Y408901D01*
X171327Y407172D01*
X168827Y404672D01*
X167099Y402701D01*
X165642Y400522D01*
X164483Y398170D01*
X163640Y395688D01*
X163129Y393116D01*
X162957Y390500D01*
Y314987D01*
X99268Y251298D01*
X99081Y251085D01*
X98873Y250892D01*
X98217Y250100D01*
X97539Y249327D01*
X97382Y249091D01*
X97201Y248873D01*
X96654Y248002D01*
X96083Y247147D01*
X96019Y247018D01*
X93012D01*
X93011Y247017D01*
X93010Y247018D01*
X92816Y246978D01*
X92622Y246940D01*
X92621Y246939D01*
X92620Y246939D01*
X92457Y246830D01*
X92291Y246719D01*
X92291Y246718D01*
X92290Y246718D01*
X91937Y246363D01*
X91937Y246363D01*
X91936Y246362D01*
X91827Y246198D01*
X91717Y246032D01*
X91716Y246031D01*
X91716Y246030D01*
X91679Y245838D01*
X91640Y245642D01*
X91640Y245641D01*
X91640Y245640D01*
X91888Y178996D01*
X91927Y178803D01*
X91966Y178610D01*
X91967Y178608D01*
X91967Y178606D01*
X92078Y178443D01*
X92187Y178279D01*
X95758Y174708D01*
X95758Y174708D01*
X96455Y174012D01*
X96538Y173956D01*
X96609Y173885D01*
X98247Y172790D01*
X98340Y172752D01*
X98423Y172696D01*
X100243Y171942D01*
X100341Y171923D01*
X100434Y171884D01*
X102366Y171500D01*
X102467D01*
X102565Y171480D01*
X103550Y171480D01*
X104939D01*
X105130Y171019D01*
X85025Y150914D01*
X84974Y150928D01*
X84581Y151176D01*
X84689Y152000D01*
X84563Y152955D01*
X84195Y153844D01*
X83609Y154609D01*
X82845Y155195D01*
X81955Y155563D01*
X81000Y155689D01*
X80045Y155563D01*
X79155Y155195D01*
X78391Y154609D01*
X77805Y153844D01*
X77437Y152955D01*
X77311Y152000D01*
X77437Y151045D01*
X77805Y150155D01*
X78391Y149391D01*
X79155Y148805D01*
X80045Y148437D01*
X81000Y148311D01*
X81824Y148419D01*
X82072Y148026D01*
X82086Y147975D01*
X80629Y146517D01*
X59475D01*
X59474Y146517D01*
X56858Y146346D01*
X54287Y145834D01*
X51804Y144992D01*
X49453Y143832D01*
X47273Y142376D01*
X45302Y140647D01*
X45302Y140647D01*
X23247Y118592D01*
X22773Y118825D01*
X22846Y119378D01*
X22722Y120317D01*
X22360Y121193D01*
X21783Y121944D01*
X21031Y122521D01*
X20156Y122884D01*
X19217Y123007D01*
X18277Y122884D01*
X17402Y122521D01*
X16650Y121944D01*
X16073Y121193D01*
X15711Y120317D01*
X15587Y119378D01*
X15711Y118439D01*
X16073Y117563D01*
X16650Y116812D01*
X17402Y116235D01*
X18277Y115872D01*
X19217Y115749D01*
X19769Y115821D01*
X20003Y115348D01*
X17595Y112940D01*
X17242Y112587D01*
X17242Y112587D01*
X17242Y112587D01*
X16974Y112282D01*
X15386Y110505D01*
X13772Y108230D01*
X12423Y105790D01*
X11356Y103213D01*
X10584Y100534D01*
X10117Y97784D01*
X9961Y95000D01*
X9957D01*
X10129Y92384D01*
X10640Y89812D01*
X11483Y87330D01*
X12642Y84978D01*
X14099Y82799D01*
X15827Y80827D01*
X17799Y79099D01*
X19978Y77642D01*
X22330Y76483D01*
X24813Y75640D01*
X27384Y75129D01*
X30000Y74957D01*
X32616Y75129D01*
X35188Y75640D01*
X37670Y76483D01*
X40021Y77642D01*
X42201Y79099D01*
X44172Y80827D01*
X45901Y82799D01*
X46021Y82978D01*
X46374Y83278D01*
X46479Y83350D01*
X46556Y83537D01*
X46819Y84173D01*
X46992Y84431D01*
X47358Y84978D01*
X47358Y84978D01*
X47540Y85348D01*
X47613Y85497D01*
X48364Y87019D01*
X67776Y106431D01*
X88931D01*
X91547Y106603D01*
X94119Y107115D01*
X96601Y107957D01*
X98953Y109117D01*
X101133Y110573D01*
X103104Y112302D01*
X162282Y171480D01*
X262500D01*
X262890Y171558D01*
X263221Y171779D01*
X263442Y172110D01*
X263520Y172500D01*
Y232719D01*
X263520Y232719D01*
X263520Y233385D01*
X263500Y233483D01*
Y233584D01*
X263240Y234890D01*
X263202Y234983D01*
X263182Y235081D01*
X262672Y236312D01*
X262617Y236395D01*
X262578Y236488D01*
X261838Y237596D01*
X261767Y237667D01*
X261711Y237750D01*
X255672Y243790D01*
X255671Y243790D01*
X254975Y244486D01*
X254892Y244542D01*
X254821Y244613D01*
X253183Y245708D01*
X253090Y245746D01*
X253006Y245802D01*
X251186Y246556D01*
X251088Y246575D01*
X250995Y246614D01*
X249063Y246998D01*
X248963D01*
X248864Y247018D01*
X247879Y247018D01*
X232198D01*
X232062Y247499D01*
X232486Y247758D01*
X233802Y248883D01*
X234927Y250199D01*
X235831Y251676D01*
X236494Y253275D01*
X236898Y254959D01*
X236995Y256185D01*
X215005D01*
X215102Y254959D01*
X215506Y253275D01*
X216169Y251676D01*
X217073Y250199D01*
X218198Y248883D01*
X219514Y247758D01*
X219938Y247499D01*
X219802Y247018D01*
X205480D01*
X205231Y247132D01*
X202725Y247904D01*
X200141Y248343D01*
X157984Y252686D01*
X157817Y253157D01*
X197172Y292512D01*
X198901Y294484D01*
X200358Y296664D01*
X201517Y299015D01*
X202360Y301498D01*
X202871Y304069D01*
X203043Y306685D01*
X203043Y306685D01*
Y383354D01*
X204017Y385330D01*
X204860Y387812D01*
X205371Y390384D01*
X205543Y393000D01*
X205371Y395616D01*
X204860Y398187D01*
X204017Y400670D01*
X202858Y403021D01*
X201401Y405201D01*
X199672Y407172D01*
X197701Y408901D01*
X195521Y410358D01*
X193170Y411517D01*
X190688Y412360D01*
X188116Y412871D01*
X185500Y413043D01*
D02*
G37*
G36*
X40500Y248843D02*
X38666Y248699D01*
X36877Y248269D01*
X35177Y247565D01*
X33608Y246604D01*
X32209Y245409D01*
X31014Y244010D01*
X30053Y242441D01*
X29349Y240741D01*
X28919Y238952D01*
X28775Y237118D01*
X28919Y235284D01*
X29349Y233495D01*
X30053Y231795D01*
X31014Y230226D01*
X32209Y228827D01*
X33608Y227632D01*
X35177Y226671D01*
X36877Y225967D01*
X38666Y225537D01*
X40500Y225393D01*
X42334Y225537D01*
X44123Y225967D01*
X45823Y226671D01*
X47392Y227632D01*
X48791Y228827D01*
X49986Y230226D01*
X50947Y231795D01*
X51651Y233495D01*
X52081Y235284D01*
X52225Y237118D01*
X52081Y238952D01*
X51651Y240741D01*
X50947Y242441D01*
X49986Y244010D01*
X48791Y245409D01*
X47392Y246604D01*
X45823Y247565D01*
X44123Y248269D01*
X42334Y248699D01*
X40500Y248843D01*
D02*
G37*
G36*
X19716Y202751D02*
X18777Y202628D01*
X17902Y202265D01*
X17150Y201689D01*
X16573Y200937D01*
X16211Y200061D01*
X16087Y199122D01*
X16211Y198183D01*
X16573Y197307D01*
X17150Y196556D01*
X17902Y195979D01*
X18777Y195616D01*
X19716Y195493D01*
X20656Y195616D01*
X21531Y195979D01*
X22283Y196556D01*
X22860Y197307D01*
X23222Y198183D01*
X23346Y199122D01*
X23222Y200061D01*
X22860Y200937D01*
X22283Y201689D01*
X21531Y202265D01*
X20656Y202628D01*
X19716Y202751D01*
D02*
G37*
G36*
X12500Y191470D02*
Y187811D01*
X16159D01*
X16081Y188405D01*
X15659Y189424D01*
X14988Y190299D01*
X14113Y190970D01*
X13093Y191392D01*
X12500Y191470D01*
D02*
G37*
G36*
X11500D02*
X10907Y191392D01*
X9887Y190970D01*
X9012Y190299D01*
X8341Y189424D01*
X7919Y188405D01*
X7841Y187811D01*
X11500D01*
Y191470D01*
D02*
G37*
G36*
X16159Y186811D02*
X12500D01*
Y183152D01*
X13093Y183230D01*
X14113Y183652D01*
X14988Y184323D01*
X15659Y185198D01*
X16081Y186217D01*
X16159Y186811D01*
D02*
G37*
G36*
X11500D02*
X7841D01*
X7919Y186217D01*
X8341Y185198D01*
X9012Y184323D01*
X9887Y183652D01*
X10907Y183230D01*
X11500Y183152D01*
Y186811D01*
D02*
G37*
G36*
X12000Y179725D02*
X10907Y179581D01*
X9887Y179159D01*
X9012Y178488D01*
X8341Y177613D01*
X7919Y176593D01*
X7775Y175500D01*
X7919Y174407D01*
X8341Y173387D01*
X9012Y172512D01*
X9887Y171841D01*
X10907Y171419D01*
X12000Y171275D01*
X13093Y171419D01*
X14113Y171841D01*
X14988Y172512D01*
X15659Y173387D01*
X16081Y174407D01*
X16225Y175500D01*
X16081Y176593D01*
X15659Y177613D01*
X14988Y178488D01*
X14113Y179159D01*
X13093Y179581D01*
X12000Y179725D01*
D02*
G37*
G36*
X81000Y175689D02*
X80045Y175563D01*
X79155Y175195D01*
X78391Y174609D01*
X77805Y173845D01*
X77437Y172955D01*
X77311Y172000D01*
X77437Y171045D01*
X77805Y170156D01*
X78391Y169392D01*
X79155Y168805D01*
X80045Y168437D01*
X81000Y168311D01*
X81955Y168437D01*
X82845Y168805D01*
X83609Y169392D01*
X84195Y170156D01*
X84563Y171045D01*
X84689Y172000D01*
X84563Y172955D01*
X84195Y173845D01*
X83609Y174609D01*
X82845Y175195D01*
X81955Y175563D01*
X81000Y175689D01*
D02*
G37*
G36*
X49000D02*
X48045Y175563D01*
X47155Y175195D01*
X46391Y174609D01*
X45805Y173845D01*
X45437Y172955D01*
X45311Y172000D01*
X45437Y171045D01*
X45805Y170156D01*
X46391Y169392D01*
X47155Y168805D01*
X48045Y168437D01*
X49000Y168311D01*
X49955Y168437D01*
X50845Y168805D01*
X51609Y169392D01*
X52195Y170156D01*
X52563Y171045D01*
X52689Y172000D01*
X52563Y172955D01*
X52195Y173845D01*
X51609Y174609D01*
X50845Y175195D01*
X49955Y175563D01*
X49000Y175689D01*
D02*
G37*
G36*
X81500Y165623D02*
Y162500D01*
X84623D01*
X84563Y162955D01*
X84195Y163845D01*
X83609Y164609D01*
X82845Y165195D01*
X81955Y165563D01*
X81500Y165623D01*
D02*
G37*
G36*
X49500D02*
Y162500D01*
X52623D01*
X52563Y162955D01*
X52195Y163845D01*
X51609Y164609D01*
X50845Y165195D01*
X49955Y165563D01*
X49500Y165623D01*
D02*
G37*
G36*
X80500D02*
X80045Y165563D01*
X79155Y165195D01*
X78391Y164609D01*
X77805Y163845D01*
X77437Y162955D01*
X77377Y162500D01*
X80500D01*
Y165623D01*
D02*
G37*
G36*
X48500D02*
X48045Y165563D01*
X47155Y165195D01*
X46391Y164609D01*
X45805Y163845D01*
X45437Y162955D01*
X45377Y162500D01*
X48500D01*
Y165623D01*
D02*
G37*
G36*
X19716Y167318D02*
X18777Y167195D01*
X17902Y166832D01*
X17150Y166255D01*
X16573Y165504D01*
X16211Y164628D01*
X16087Y163689D01*
X16211Y162750D01*
X16573Y161874D01*
X17150Y161123D01*
X17902Y160546D01*
X18777Y160183D01*
X19716Y160059D01*
X20656Y160183D01*
X21531Y160546D01*
X22283Y161123D01*
X22860Y161874D01*
X23222Y162750D01*
X23346Y163689D01*
X23222Y164628D01*
X22860Y165504D01*
X22283Y166255D01*
X21531Y166832D01*
X20656Y167195D01*
X19716Y167318D01*
D02*
G37*
G36*
X84623Y161500D02*
X81500D01*
Y158377D01*
X81955Y158437D01*
X82845Y158805D01*
X83609Y159391D01*
X84195Y160155D01*
X84563Y161045D01*
X84623Y161500D01*
D02*
G37*
G36*
X52623D02*
X49500D01*
Y158377D01*
X49955Y158437D01*
X50845Y158805D01*
X51609Y159391D01*
X52195Y160155D01*
X52563Y161045D01*
X52623Y161500D01*
D02*
G37*
G36*
X80500D02*
X77377D01*
X77437Y161045D01*
X77805Y160155D01*
X78391Y159391D01*
X79155Y158805D01*
X80045Y158437D01*
X80500Y158377D01*
Y161500D01*
D02*
G37*
G36*
X48500D02*
X45377D01*
X45437Y161045D01*
X45805Y160155D01*
X46391Y159391D01*
X47155Y158805D01*
X48045Y158437D01*
X48500Y158377D01*
Y161500D01*
D02*
G37*
G36*
X19217Y158440D02*
X18277Y158317D01*
X17402Y157954D01*
X16650Y157377D01*
X16073Y156626D01*
X15711Y155750D01*
X15587Y154811D01*
X15711Y153872D01*
X16073Y152996D01*
X16650Y152245D01*
X17402Y151668D01*
X18277Y151305D01*
X19217Y151182D01*
X20156Y151305D01*
X21031Y151668D01*
X21783Y152245D01*
X22360Y152996D01*
X22722Y153872D01*
X22846Y154811D01*
X22722Y155750D01*
X22360Y156626D01*
X21783Y157377D01*
X21031Y157954D01*
X20156Y158317D01*
X19217Y158440D01*
D02*
G37*
G36*
X49000Y155689D02*
X48045Y155563D01*
X47155Y155195D01*
X46391Y154609D01*
X45805Y153844D01*
X45437Y152955D01*
X45311Y152000D01*
X45437Y151045D01*
X45805Y150155D01*
X46391Y149391D01*
X47155Y148805D01*
X48045Y148437D01*
X49000Y148311D01*
X49955Y148437D01*
X50845Y148805D01*
X51609Y149391D01*
X52195Y150155D01*
X52563Y151045D01*
X52689Y152000D01*
X52563Y152955D01*
X52195Y153844D01*
X51609Y154609D01*
X50845Y155195D01*
X49955Y155563D01*
X49000Y155689D01*
D02*
G37*
G36*
X12000Y147159D02*
Y143500D01*
X15659D01*
X15581Y144094D01*
X15159Y145113D01*
X14488Y145988D01*
X13613Y146659D01*
X12594Y147081D01*
X12000Y147159D01*
D02*
G37*
G36*
X11000D02*
X10407Y147081D01*
X9387Y146659D01*
X8512Y145988D01*
X7841Y145113D01*
X7419Y144094D01*
X7341Y143500D01*
X11000D01*
Y147159D01*
D02*
G37*
G36*
X15659Y142500D02*
X12000D01*
Y138841D01*
X12594Y138919D01*
X13613Y139341D01*
X14488Y140012D01*
X15159Y140887D01*
X15581Y141906D01*
X15659Y142500D01*
D02*
G37*
G36*
X11000D02*
X7341D01*
X7419Y141906D01*
X7841Y140887D01*
X8512Y140012D01*
X9387Y139341D01*
X10407Y138919D01*
X11000Y138841D01*
Y142500D01*
D02*
G37*
G36*
X11500Y135414D02*
X10407Y135270D01*
X9387Y134848D01*
X8512Y134177D01*
X7841Y133301D01*
X7419Y132282D01*
X7275Y131189D01*
X7419Y130095D01*
X7841Y129076D01*
X8512Y128201D01*
X9387Y127530D01*
X10407Y127108D01*
X11500Y126964D01*
X12594Y127108D01*
X13613Y127530D01*
X14488Y128201D01*
X15159Y129076D01*
X15581Y130095D01*
X15725Y131189D01*
X15581Y132282D01*
X15159Y133301D01*
X14488Y134177D01*
X13613Y134848D01*
X12594Y135270D01*
X11500Y135414D01*
D02*
G37*
G36*
X249740Y111417D02*
X239201D01*
Y100878D01*
X249740D01*
Y111417D01*
D02*
G37*
G36*
X238201D02*
X227661D01*
Y100878D01*
X238201D01*
Y111417D01*
D02*
G37*
G36*
X288500Y99570D02*
Y96000D01*
X292070D01*
X291995Y96570D01*
X291582Y97568D01*
X290924Y98424D01*
X290068Y99082D01*
X289070Y99495D01*
X288500Y99570D01*
D02*
G37*
G36*
X287500D02*
X286930Y99495D01*
X285932Y99082D01*
X285076Y98424D01*
X284418Y97568D01*
X284005Y96570D01*
X283930Y96000D01*
X287500D01*
Y99570D01*
D02*
G37*
G36*
X161000Y101456D02*
Y95500D01*
X166956D01*
X166881Y96269D01*
X166510Y97490D01*
X165909Y98614D01*
X165100Y99600D01*
X164114Y100409D01*
X162990Y101011D01*
X161769Y101381D01*
X161000Y101456D01*
D02*
G37*
G36*
X160000D02*
X159231Y101381D01*
X158010Y101011D01*
X156886Y100409D01*
X155900Y99600D01*
X155091Y98614D01*
X154490Y97490D01*
X154119Y96269D01*
X154043Y95500D01*
X160000D01*
Y101456D01*
D02*
G37*
G36*
X68000D02*
Y95500D01*
X73957D01*
X73881Y96269D01*
X73510Y97490D01*
X72909Y98614D01*
X72100Y99600D01*
X71114Y100409D01*
X69990Y101011D01*
X68769Y101381D01*
X68000Y101456D01*
D02*
G37*
G36*
X67000D02*
X66231Y101381D01*
X65010Y101011D01*
X63886Y100409D01*
X62900Y99600D01*
X62091Y98614D01*
X61489Y97490D01*
X61119Y96269D01*
X61044Y95500D01*
X67000D01*
Y101456D01*
D02*
G37*
G36*
X292070Y95000D02*
X288500D01*
Y91430D01*
X289070Y91505D01*
X290068Y91918D01*
X290924Y92576D01*
X291582Y93432D01*
X291995Y94430D01*
X292070Y95000D01*
D02*
G37*
G36*
X287500D02*
X283930D01*
X284005Y94430D01*
X284418Y93432D01*
X285076Y92576D01*
X285932Y91918D01*
X286930Y91505D01*
X287500Y91430D01*
Y95000D01*
D02*
G37*
G36*
X282100Y99600D02*
X273900D01*
Y91400D01*
X282100D01*
Y99600D01*
D02*
G37*
G36*
X298000Y99636D02*
X296930Y99495D01*
X295932Y99082D01*
X295076Y98424D01*
X294418Y97568D01*
X294005Y96570D01*
X293864Y95500D01*
X294005Y94430D01*
X294418Y93432D01*
X295076Y92576D01*
X295932Y91918D01*
X296930Y91505D01*
X298000Y91364D01*
X299070Y91505D01*
X300068Y91918D01*
X300924Y92576D01*
X301582Y93432D01*
X301995Y94430D01*
X302136Y95500D01*
X301995Y96570D01*
X301582Y97568D01*
X300924Y98424D01*
X300068Y99082D01*
X299070Y99495D01*
X298000Y99636D01*
D02*
G37*
G36*
X249740Y99878D02*
X239201D01*
Y89339D01*
X249740D01*
Y99878D01*
D02*
G37*
G36*
X238201D02*
X227661D01*
Y89339D01*
X238201D01*
Y99878D01*
D02*
G37*
G36*
X210500Y111451D02*
X208768Y111315D01*
X207078Y110909D01*
X205473Y110245D01*
X203991Y109337D01*
X202670Y108208D01*
X201541Y106887D01*
X200633Y105405D01*
X199969Y103800D01*
X199563Y102110D01*
X199426Y100378D01*
X199563Y98646D01*
X199969Y96956D01*
X200633Y95351D01*
X201541Y93869D01*
X202670Y92548D01*
X203991Y91419D01*
X205473Y90511D01*
X207078Y89846D01*
X208768Y89441D01*
X210500Y89304D01*
X212232Y89441D01*
X213922Y89846D01*
X215527Y90511D01*
X217009Y91419D01*
X218330Y92548D01*
X219459Y93869D01*
X220367Y95351D01*
X221031Y96956D01*
X221437Y98646D01*
X221573Y100378D01*
X221437Y102110D01*
X221031Y103800D01*
X220367Y105405D01*
X219459Y106887D01*
X218330Y108208D01*
X217009Y109337D01*
X215527Y110245D01*
X213922Y110909D01*
X212232Y111315D01*
X210500Y111451D01*
D02*
G37*
G36*
X166956Y94500D02*
X161000D01*
Y88543D01*
X161769Y88619D01*
X162990Y88990D01*
X164114Y89591D01*
X165100Y90400D01*
X165909Y91386D01*
X166510Y92510D01*
X166881Y93731D01*
X166956Y94500D01*
D02*
G37*
G36*
X160000D02*
X154043D01*
X154119Y93731D01*
X154490Y92510D01*
X155091Y91386D01*
X155900Y90400D01*
X156886Y89591D01*
X158010Y88990D01*
X159231Y88619D01*
X160000Y88543D01*
Y94500D01*
D02*
G37*
G36*
X73957D02*
X68000D01*
Y88543D01*
X68769Y88619D01*
X69990Y88990D01*
X71114Y89591D01*
X72100Y90400D01*
X72909Y91386D01*
X73510Y92510D01*
X73881Y93731D01*
X73957Y94500D01*
D02*
G37*
G36*
X67000D02*
X61044D01*
X61119Y93731D01*
X61489Y92510D01*
X62091Y91386D01*
X62900Y90400D01*
X63886Y89591D01*
X65010Y88990D01*
X66231Y88619D01*
X67000Y88543D01*
Y94500D01*
D02*
G37*
G36*
X123000Y101506D02*
X121731Y101381D01*
X120510Y101011D01*
X119386Y100409D01*
X118400Y99600D01*
X117591Y98614D01*
X116990Y97490D01*
X116619Y96269D01*
X116494Y95000D01*
X116619Y93731D01*
X116990Y92510D01*
X117591Y91386D01*
X118400Y90400D01*
X119386Y89591D01*
X120510Y88990D01*
X121731Y88619D01*
X123000Y88494D01*
X124269Y88619D01*
X125490Y88990D01*
X126614Y89591D01*
X127600Y90400D01*
X128409Y91386D01*
X129010Y92510D01*
X129381Y93731D01*
X129506Y95000D01*
X129381Y96269D01*
X129010Y97490D01*
X128409Y98614D01*
X127600Y99600D01*
X126614Y100409D01*
X125490Y101011D01*
X124269Y101381D01*
X123000Y101506D01*
D02*
G37*
G36*
X319240Y71039D02*
X308701D01*
Y60500D01*
X319240D01*
Y71039D01*
D02*
G37*
G36*
X307701D02*
X297161D01*
Y60500D01*
X307701D01*
Y71039D01*
D02*
G37*
G36*
X249740Y70917D02*
X239201D01*
Y60378D01*
X249740D01*
Y70917D01*
D02*
G37*
G36*
X238201D02*
X227661D01*
Y60378D01*
X238201D01*
Y70917D01*
D02*
G37*
G36*
X319240Y59500D02*
X308701D01*
Y48961D01*
X319240D01*
Y59500D01*
D02*
G37*
G36*
X307701D02*
X297161D01*
Y48961D01*
X307701D01*
Y59500D01*
D02*
G37*
G36*
X280000Y71074D02*
X278268Y70937D01*
X276578Y70531D01*
X274973Y69867D01*
X273491Y68959D01*
X272170Y67830D01*
X271041Y66509D01*
X270133Y65027D01*
X269468Y63422D01*
X269063Y61732D01*
X268927Y60000D01*
X269063Y58268D01*
X269468Y56578D01*
X270133Y54973D01*
X271041Y53491D01*
X272170Y52170D01*
X273491Y51041D01*
X274973Y50133D01*
X276578Y49468D01*
X278268Y49063D01*
X280000Y48926D01*
X281732Y49063D01*
X283422Y49468D01*
X285027Y50133D01*
X286509Y51041D01*
X287830Y52170D01*
X288959Y53491D01*
X289867Y54973D01*
X290531Y56578D01*
X290937Y58268D01*
X291073Y60000D01*
X290937Y61732D01*
X290531Y63422D01*
X289867Y65027D01*
X288959Y66509D01*
X287830Y67830D01*
X286509Y68959D01*
X285027Y69867D01*
X283422Y70531D01*
X281732Y70937D01*
X280000Y71074D01*
D02*
G37*
G36*
X249740Y59378D02*
X239201D01*
Y48839D01*
X249740D01*
Y59378D01*
D02*
G37*
G36*
X238201D02*
X227661D01*
Y48839D01*
X238201D01*
Y59378D01*
D02*
G37*
G36*
X210500Y70951D02*
X208768Y70815D01*
X207078Y70410D01*
X205473Y69744D01*
X203991Y68837D01*
X202670Y67708D01*
X201541Y66387D01*
X200633Y64905D01*
X199969Y63300D01*
X199563Y61610D01*
X199426Y59878D01*
X199563Y58146D01*
X199969Y56456D01*
X200633Y54851D01*
X201541Y53369D01*
X202670Y52048D01*
X203991Y50919D01*
X205473Y50011D01*
X207078Y49346D01*
X208768Y48941D01*
X210500Y48804D01*
X212232Y48941D01*
X213922Y49346D01*
X215527Y50011D01*
X217009Y50919D01*
X218330Y52048D01*
X219459Y53369D01*
X220367Y54851D01*
X221031Y56456D01*
X221437Y58146D01*
X221573Y59878D01*
X221437Y61610D01*
X221031Y63300D01*
X220367Y64905D01*
X219459Y66387D01*
X218330Y67708D01*
X217009Y68837D01*
X215527Y69744D01*
X213922Y70410D01*
X212232Y70815D01*
X210500Y70951D01*
D02*
G37*
G36*
X298500Y24835D02*
X297069Y24694D01*
X295693Y24277D01*
X294425Y23599D01*
X293313Y22687D01*
X292401Y21575D01*
X291723Y20307D01*
X291306Y18931D01*
X291165Y17500D01*
X291306Y16069D01*
X291723Y14693D01*
X292401Y13425D01*
X293313Y12313D01*
X294425Y11401D01*
X295693Y10723D01*
X297069Y10306D01*
X298500Y10165D01*
X299931Y10306D01*
X301307Y10723D01*
X302575Y11401D01*
X303687Y12313D01*
X304599Y13425D01*
X305277Y14693D01*
X305694Y16069D01*
X305835Y17500D01*
X305694Y18931D01*
X305277Y20307D01*
X304599Y21575D01*
X303687Y22687D01*
X302575Y23599D01*
X301307Y24277D01*
X299931Y24694D01*
X298500Y24835D01*
D02*
G37*
G36*
X168000D02*
X166569Y24694D01*
X165193Y24277D01*
X163925Y23599D01*
X162813Y22687D01*
X161901Y21575D01*
X161223Y20307D01*
X160806Y18931D01*
X160665Y17500D01*
X160806Y16069D01*
X161223Y14693D01*
X161901Y13425D01*
X162813Y12313D01*
X163925Y11401D01*
X165193Y10723D01*
X166569Y10306D01*
X168000Y10165D01*
X169431Y10306D01*
X170807Y10723D01*
X172075Y11401D01*
X173187Y12313D01*
X174099Y13425D01*
X174777Y14693D01*
X175194Y16069D01*
X175335Y17500D01*
X175194Y18931D01*
X174777Y20307D01*
X174099Y21575D01*
X173187Y22687D01*
X172075Y23599D01*
X170807Y24277D01*
X169431Y24694D01*
X168000Y24835D01*
D02*
G37*
G36*
X37000D02*
X35569Y24694D01*
X34193Y24277D01*
X32925Y23599D01*
X31813Y22687D01*
X30901Y21575D01*
X30223Y20307D01*
X29806Y18931D01*
X29665Y17500D01*
X29806Y16069D01*
X30223Y14693D01*
X30901Y13425D01*
X31813Y12313D01*
X32925Y11401D01*
X34193Y10723D01*
X35569Y10306D01*
X37000Y10165D01*
X38431Y10306D01*
X39807Y10723D01*
X41075Y11401D01*
X42187Y12313D01*
X43099Y13425D01*
X43777Y14693D01*
X44194Y16069D01*
X44335Y17500D01*
X44194Y18931D01*
X43777Y20307D01*
X43099Y21575D01*
X42187Y22687D01*
X41075Y23599D01*
X39807Y24277D01*
X38431Y24694D01*
X37000Y24835D01*
D02*
G37*
%LPD*%
G36*
X101861Y245998D02*
X102034Y245529D01*
X101894Y245409D01*
X100699Y244010D01*
X99738Y242441D01*
X99034Y240741D01*
X98604Y238952D01*
X98499Y237618D01*
X110185D01*
X121871D01*
X121766Y238952D01*
X121336Y240741D01*
X120632Y242441D01*
X119671Y244010D01*
X118476Y245409D01*
X118336Y245529D01*
X118509Y245998D01*
X223395Y245998D01*
X224274Y245787D01*
X226000Y245651D01*
X227726Y245787D01*
X228605Y245998D01*
X247880D01*
X248864Y245998D01*
X250796Y245614D01*
X252616Y244860D01*
X254254Y243765D01*
X254950Y243069D01*
X254950Y243069D01*
X254951Y243069D01*
X260991Y237029D01*
X261731Y235922D01*
X262240Y234691D01*
X262500Y233385D01*
X262500Y232719D01*
X262500Y232719D01*
X262500Y232719D01*
Y172500D01*
X103550D01*
X102565Y172500D01*
X100633Y172884D01*
X98813Y173638D01*
X97176Y174732D01*
X96479Y175429D01*
X96479Y175429D01*
X92908Y179000D01*
X92659Y245644D01*
X93012Y245998D01*
X101861D01*
D02*
G37*
%LPC*%
G36*
X109685Y236618D02*
X98499D01*
X98604Y235284D01*
X99034Y233495D01*
X99738Y231795D01*
X100699Y230226D01*
X101894Y228827D01*
X103293Y227632D01*
X104862Y226671D01*
X106562Y225967D01*
X108351Y225537D01*
X109685Y225432D01*
Y236618D01*
D02*
G37*
G36*
X121871D02*
X110685D01*
Y225432D01*
X112019Y225537D01*
X113808Y225967D01*
X115508Y226671D01*
X117077Y227632D01*
X118476Y228827D01*
X119671Y230226D01*
X120632Y231795D01*
X121336Y233495D01*
X121766Y235284D01*
X121871Y236618D01*
D02*
G37*
G36*
X226500Y228310D02*
Y217815D01*
X236995D01*
X236898Y219041D01*
X236494Y220725D01*
X235831Y222324D01*
X234927Y223801D01*
X233802Y225117D01*
X232486Y226242D01*
X231009Y227146D01*
X229410Y227809D01*
X227726Y228213D01*
X226500Y228310D01*
D02*
G37*
G36*
X225500D02*
X224274Y228213D01*
X222590Y227809D01*
X220991Y227146D01*
X219514Y226242D01*
X218198Y225117D01*
X217073Y223801D01*
X216169Y222324D01*
X215506Y220725D01*
X215102Y219041D01*
X215005Y217815D01*
X225500D01*
Y228310D01*
D02*
G37*
G36*
X236995Y216815D02*
X226500D01*
Y206320D01*
X227726Y206417D01*
X229410Y206821D01*
X231009Y207484D01*
X232486Y208388D01*
X233802Y209513D01*
X234927Y210829D01*
X235831Y212306D01*
X236494Y213905D01*
X236898Y215589D01*
X236995Y216815D01*
D02*
G37*
G36*
X225500D02*
X215005D01*
X215102Y215589D01*
X215506Y213905D01*
X216169Y212306D01*
X217073Y210829D01*
X218198Y209513D01*
X219514Y208388D01*
X220991Y207484D01*
X222590Y206821D01*
X224274Y206417D01*
X225500Y206320D01*
Y216815D01*
D02*
G37*
%LPD*%
D10*
X9367Y447367D02*
G03*
X0Y438000I0J-9367D01*
G01*
Y13500D02*
G03*
X11500Y0I12500J-1000D01*
G01*
X312500D02*
G03*
X328000Y15500I-0J15500D01*
G01*
X328027Y434493D02*
G03*
X314000Y447367I-13521J-654D01*
G01*
X9367D02*
X16439D01*
X0Y429143D02*
Y438000D01*
X313133Y447367D02*
X313834D01*
X11500Y0D02*
X312500D01*
X328000Y15500D02*
Y434500D01*
X16439Y447367D02*
X313133D01*
X0Y13500D02*
Y429143D01*
D34*
X278000Y95500D02*
D03*
D35*
X288000D02*
D03*
X298000D02*
D03*
D36*
X226000Y217315D02*
D03*
Y256685D02*
D03*
D37*
X168000Y17500D02*
D03*
Y430000D02*
D03*
X37000Y17500D02*
D03*
Y430000D02*
D03*
X298500D02*
D03*
Y17500D02*
D03*
D38*
X160500Y95000D02*
D03*
X123000D02*
D03*
X30000D02*
D03*
X67500D02*
D03*
D39*
X81000Y152000D02*
D03*
Y162000D02*
D03*
Y172000D02*
D03*
X49000D02*
D03*
Y162000D02*
D03*
Y152000D02*
D03*
D40*
X308201Y60000D02*
D03*
X238701Y59878D02*
D03*
Y100378D02*
D03*
D41*
X280000Y60000D02*
D03*
X210500Y59878D02*
D03*
Y100378D02*
D03*
D42*
X11500Y143000D02*
D03*
Y131189D02*
D03*
X12000Y187311D02*
D03*
Y175500D02*
D03*
D43*
X19217Y119378D02*
D03*
Y154811D02*
D03*
X19716Y163689D02*
D03*
Y199122D02*
D03*
D44*
X110185Y382000D02*
D03*
Y337906D02*
D03*
Y281213D02*
D03*
Y237118D02*
D03*
X40500Y382000D02*
D03*
Y237118D02*
D03*
D45*
X275500Y378000D02*
D03*
Y338000D02*
D03*
D46*
X225500Y323000D02*
D03*
X185500Y393000D02*
D03*
D47*
X31414Y98414D02*
G03*
X30000Y95000I3414J-3414D01*
G01*
X31414Y98414D02*
X59474Y126474D01*
X88931D02*
X190587Y228130D01*
X113440Y237125D02*
X198087Y228405D01*
X59474Y126474D02*
X88931D01*
X183000Y306685D02*
Y390500D01*
X185500Y393000D01*
X113440Y237125D02*
X183000Y306685D01*
X113500Y235713D02*
X114220D01*
M02*
