G04*
G04 #@! TF.GenerationSoftware,Altium Limited,Altium Designer,19.0.15 (446)*
G04*
G04 Layer_Color=16711935*
%FSLAX25Y25*%
%MOIN*%
G70*
G01*
G75*
%ADD10C,0.01000*%
%ADD12C,0.00787*%
%ADD14C,0.00394*%
D10*
X294898Y237000D02*
G03*
X294898Y237000I-68898J0D01*
G01*
X65685Y134283D02*
Y189402D01*
X95213D01*
Y134283D02*
Y189402D01*
X65685Y134283D02*
X95213D01*
X33685D02*
X63213D01*
Y189402D01*
X33685D02*
X63213D01*
X33685Y134283D02*
Y189402D01*
X9367Y447367D02*
G03*
X0Y438000I0J-9367D01*
G01*
Y13500D02*
G03*
X11500Y0I12500J-1000D01*
G01*
X312500D02*
G03*
X328000Y15500I-0J15500D01*
G01*
X328027Y434493D02*
G03*
X314000Y447367I-13521J-654D01*
G01*
X9367D02*
X16439D01*
X0Y429143D02*
Y438000D01*
X313133Y447367D02*
X313834D01*
X11500Y0D02*
X312500D01*
X328000Y15500D02*
Y434500D01*
X16439Y447367D02*
X313133D01*
X0Y13500D02*
Y429143D01*
D12*
X265165Y121091D02*
X310835D01*
Y87626D02*
Y121091D01*
X265165Y87626D02*
X310835D01*
X265165D02*
Y121091D01*
X101000Y43000D02*
Y113000D01*
Y43000D02*
X182098D01*
Y113000D01*
X101000D02*
X182098D01*
X3902Y118098D02*
Y156091D01*
X21106D01*
Y118098D02*
Y156091D01*
X3902Y118098D02*
X21106D01*
X4402Y162409D02*
Y200402D01*
X21606D01*
Y162409D02*
Y200402D01*
X4402Y162409D02*
X21606D01*
X8000Y113000D02*
X89098D01*
Y43000D02*
Y113000D01*
X8000Y43000D02*
X89098D01*
X8000D02*
Y113000D01*
X145224Y206213D02*
Y412906D01*
X5461Y206213D02*
X145224D01*
X5461D02*
Y412906D01*
X145224D01*
X173413Y315677D02*
Y400323D01*
Y315677D02*
X287587D01*
Y400323D01*
X173413D02*
X287587D01*
D14*
X260354Y44000D02*
X322303D01*
X260354D02*
Y76000D01*
X322303D01*
Y44000D02*
Y76000D01*
X252803Y43878D02*
Y75878D01*
X190854D02*
X252803D01*
X190854Y43878D02*
Y75878D01*
Y43878D02*
X252803D01*
Y84378D02*
Y116378D01*
X190854D02*
X252803D01*
X190854Y84378D02*
Y116378D01*
Y84378D02*
X252803D01*
M02*
