M48
;Layer_Color=9474304
;FILE_FORMAT=2:5
INCH,LZ
;TYPE=PLATED
T1F00S00C0.00500
T2F00S00C0.01000
T3F00S00C0.01181
T4F00S00C0.01400
T5F00S00C0.01500
T6F00S00C0.02000
T7F00S00C0.02800
T8F00S00C0.03000
T9F00S00C0.03346
T10F00S00C0.03543
T11F00S00C0.03937
T12F00S00C0.04000
T13F00S00C0.04331
T14F00S00C0.04528
T15F00S00C0.05197
T16F00S00C0.07087
T17F00S00C0.11811
T18F00S00C0.13386
%
T01
X02195Y0067361
X023Y00705
X021467Y01035
X0079Y0155622
X0064157Y0164157
T02
X0038194Y0043232
X00606Y00427
X00815
X0103431
X0124936
X0147398Y0042421
X0169986
X0189166
X0205675Y00491
X02096
X0223449Y0046905
X0239Y00485
X0241243Y0067361
X0219892Y0077144
X0272Y0099
X025252Y0120181
X0205031Y0116419
X0201095Y01045
X0198311Y0105638
X01726Y01165
X016751Y0111787
X0174169Y0135252
X01455Y0083
X0150469Y020635
X0131Y0200413
X0109Y0194
X0070465Y0208
X00703Y01683
X00859Y02565
X01015Y02428
X0215431Y0257368
X0242909Y0239551
T03
X0247764Y0045421
X0257Y01095
X0265Y0109
X02625Y0137657
X0262232Y0145877
X02645Y0159
X027Y01755
X02695Y01785
X02775Y0171
X0228Y0154
X02245Y0138735
X0220765Y0139
X0217Y0142751
X0231Y01355
X02245Y01235
X0224Y012
X02245Y0117
X02205Y0118
X0217558Y0107819
X0233469Y0115
X0191252Y0116259
X01945Y01205
X01955Y01299
X01935Y0141
X0189284
X0175391Y0142751
X016751Y0145667
X0160604Y0145877
X0161461Y01395
X01575Y0138319
X0150469Y0132212
X0157614Y0121
X01665Y01185
X01846Y01152
X0189284Y0108
X0179Y00835
X0180114Y00725
X0157614
X0136114
X0115114
X0092114
X0071614
X0118Y0105
X0128Y01435
X0133409Y0212
X0205031Y01405
X0208689Y0091898
X0205031Y0067201
X0048854Y00725
X0045Y020524
X01165Y0224
X0148Y0235775
X0183207Y0225036
X0215547Y0244
X02423Y02129
X0254751Y0220752
X02645Y02245
X027975Y02345
X0253514Y02899
X02349
T04
X0158Y02155
X01725Y0233776
X02095Y0245
T05
X0189284Y0155
X02881Y02489
X0291016
T06
X0247731Y0099673
X0246766Y0128591
X0121847Y0182761
X00747Y0140712
T07
X02305Y01696
X02904Y0160584
Y01525
Y01435
T08
X0214Y00555
X02197
X0222658Y0096327
X0226139Y0094
X0189Y0096874
X0087834Y01745
T09
X0102Y0157405
X0112
X0122
T10
X0025Y00555
X01305Y0086
X01405
X0025Y00855
Y00955
Y01055
Y01155
Y01255
Y01355
Y01455
Y01555
Y01655
Y01755
Y01855
Y01955
Y02055
Y00755
Y00655
Y02155
Y02255
Y02355
Y02455
X0217Y0289
X0227
T11
X016Y01615
Y01715
Y01815
X0159Y0245
X0169
X0179
X0089Y0221
X0079
X0069
T12
X0251282Y02325
X02585
T13
X0069Y0245
X0089
T14
X0219465Y00175
X0229465
X0286504Y00485
Y00585
Y00725
Y00825
X0121201Y0118
X0107799
X0094398
X0101098Y0128
X01145
T15
X0215Y0087
X020437
X019374
T16
X0053957Y00215
X0069547
X0085138
X0100728
X0116319
X0131909
X01475
X0163091
X0178681
T17
X0025Y0025
X0275
X0025Y0275
X0275
T18
X00765Y02805
X0104701
X0137
X0165201
M30
