G04*
G04 #@! TF.GenerationSoftware,Altium Limited,Altium Designer,19.1.9 (167)*
G04*
G04 Layer_Physical_Order=4*
G04 Layer_Color=16711680*
%FSLAX25Y25*%
%MOIN*%
G70*
G01*
G75*
%ADD10C,0.01000*%
%ADD113C,0.02000*%
%ADD116C,0.07600*%
%ADD118C,0.07300*%
%ADD120C,0.04500*%
%ADD122C,0.10000*%
%ADD152C,0.05315*%
%ADD153C,0.06496*%
%ADD154C,0.10000*%
%ADD155C,0.20079*%
%ADD156R,0.20079X0.20079*%
%ADD157C,0.06791*%
%ADD158R,0.06791X0.06791*%
%ADD159R,0.06791X0.06791*%
%ADD160C,0.05906*%
%ADD161R,0.05906X0.05906*%
%ADD162R,0.05906X0.05906*%
%ADD163C,0.06000*%
%ADD164C,0.06299*%
%ADD165R,0.06299X0.06299*%
%ADD166C,0.06299*%
%ADD167R,0.06299X0.06299*%
%ADD168R,0.06693X0.06693*%
%ADD169C,0.06693*%
%ADD170C,0.07795*%
%ADD171R,0.07795X0.07795*%
%ADD172C,0.02000*%
%ADD173C,0.05000*%
%ADD174C,0.02362*%
%ADD175C,0.02500*%
%ADD176C,0.01800*%
%ADD177C,0.04500*%
%ADD178C,0.01968*%
%ADD179C,0.01780*%
%ADD180C,0.03000*%
%ADD181C,0.04000*%
%ADD182C,0.11000*%
D10*
X101098Y243500D02*
G03*
X101500Y243334I402J402D01*
G01*
X101500Y243334D01*
X101098Y243500D02*
Y250002D01*
X224700Y138500D02*
Y150300D01*
X223000Y144750D02*
Y153500D01*
X219931Y141681D02*
X223000Y144750D01*
X219655Y141681D02*
X219931D01*
X217974Y140000D02*
X219655Y141681D01*
X215672Y140000D02*
X217974D01*
X220765Y138643D02*
Y139000D01*
X224500Y150500D02*
X228000Y154000D01*
X226370Y156870D02*
X263870D01*
X225811Y135819D02*
X240592Y150600D01*
X223589Y135819D02*
X225811D01*
X220765Y138643D02*
X223589Y135819D01*
X205031Y135468D02*
Y140500D01*
X195500Y134760D02*
X204240Y143500D01*
X223000Y153500D02*
X226370Y156870D01*
X224500Y150500D02*
X224700Y150300D01*
X240592Y150600D02*
X259721D01*
X196774Y102370D02*
X201771D01*
X195223Y103920D02*
X196774Y102370D01*
X195223Y103920D02*
Y104271D01*
X190994Y108500D02*
X195223Y104271D01*
X206552Y118825D02*
X217558Y107819D01*
X216324Y105138D02*
X224638D01*
X215962Y105500D02*
X216324Y105138D01*
X222658Y96327D02*
Y96351D01*
X213842Y105500D02*
X215962D01*
X213342Y105000D02*
X213842Y105500D01*
X204401Y105000D02*
X213342D01*
X222135Y96874D02*
X234250Y108989D01*
X278854Y82500D02*
X286504D01*
X276354Y85000D02*
X278854Y82500D01*
X276354Y94354D02*
X276500Y94500D01*
X276354Y85000D02*
Y94354D01*
X182705Y113734D02*
Y121371D01*
Y113734D02*
X186498D01*
X167510Y110052D02*
Y111787D01*
X175595Y128481D02*
X182705Y121371D01*
X158019Y138319D02*
X167857Y128481D01*
X175595D01*
X185400Y116128D02*
Y116500D01*
X186498Y113734D02*
X189022Y116259D01*
X185400Y116128D02*
X192703Y123431D01*
X279750Y221602D02*
Y234500D01*
X266819Y208662D02*
X279758Y221602D01*
X231274Y225581D02*
X249922D01*
X244930Y212639D02*
X264500Y193069D01*
X242561Y212639D02*
X244930D01*
X249922Y225581D02*
X254751Y220752D01*
X124587Y194000D02*
X131000Y200413D01*
X109000Y194000D02*
X124587D01*
X81604Y256500D02*
X94600D01*
X70465Y164157D02*
X79448Y155174D01*
X255240Y109000D02*
X265000D01*
X254740Y109500D02*
X255240Y109000D01*
X243402Y118922D02*
X244127Y118197D01*
X242635Y117568D02*
X243506Y116697D01*
X231287Y115903D02*
X232952Y117568D01*
X242635D01*
X224792Y117000D02*
X226714Y118922D01*
X224500Y117000D02*
X224792D01*
X226714Y118922D02*
X243402D01*
X234250Y108989D02*
Y114887D01*
X231287Y111787D02*
Y115903D01*
X224000Y120000D02*
X224819Y120819D01*
X251802D01*
X251808Y120825D01*
X253163D01*
X276500Y144161D01*
X253342Y118197D02*
X280084Y144940D01*
X244127Y118197D02*
X253342D01*
X253963Y116697D02*
X282181Y144915D01*
X243506Y116697D02*
X253963D01*
X280084Y144940D02*
Y174914D01*
X282181Y144915D02*
Y176403D01*
X276500Y144161D02*
Y171000D01*
X279499Y175500D02*
X280084Y174914D01*
X266819Y162853D02*
Y208662D01*
Y162853D02*
X267114Y162558D01*
Y160336D02*
Y162558D01*
X266819Y160041D02*
X267114Y160336D01*
X266819Y157698D02*
Y160041D01*
X259721Y150600D02*
X266819Y157698D01*
X264433Y161447D02*
Y193002D01*
X264500Y193069D01*
X264433Y157567D02*
Y161447D01*
Y157567D02*
X264500Y157500D01*
X193050Y187358D02*
X231274Y225581D01*
X204240Y143500D02*
X212172D01*
X195500Y129900D02*
Y134760D01*
X189300Y141200D02*
Y154983D01*
X189284Y155000D02*
X189300Y154983D01*
X193050Y141000D02*
Y187358D01*
X185338Y92224D02*
X208689D01*
X230400Y65100D02*
X239000Y56500D01*
X230400Y65100D02*
Y70500D01*
X230000D02*
X230400D01*
X229992Y70508D02*
X230000Y70500D01*
X218900Y76753D02*
Y77144D01*
Y67939D02*
Y76753D01*
Y77144D02*
X219892D01*
X201771Y102370D02*
X204401Y105000D01*
X224638Y105138D02*
X231287Y111787D01*
X189076Y108500D02*
X190994D01*
X200900Y104950D02*
Y114887D01*
X202432Y116419D01*
X242650Y212729D02*
Y212764D01*
X242561Y212639D02*
X242650Y212729D01*
X192703Y123431D02*
X215069D01*
X220500Y118000D01*
X194750Y120619D02*
X196544Y118825D01*
X194750Y120619D02*
Y120750D01*
X160604Y145877D02*
X167623D01*
X167850Y145650D01*
X222135Y96874D02*
X222658Y96351D01*
X157500Y138319D02*
X158019D01*
X189022Y116259D02*
X191252D01*
X196544Y118825D02*
X206552D01*
X202432Y116419D02*
X205031D01*
X167510Y110052D02*
X185338Y92224D01*
X212000Y246100D02*
Y255700D01*
X210900Y245000D02*
X212000Y246100D01*
X209500Y245000D02*
X210900D01*
X213668Y257368D02*
X215431D01*
X212000Y255700D02*
X213668Y257368D01*
X94600Y256500D02*
X101098Y250002D01*
X279750Y221602D02*
X279758D01*
X269500Y178500D02*
X280084D01*
X101500Y242800D02*
Y243334D01*
X270000Y175500D02*
X279499D01*
X280084Y178500D02*
X282181Y176403D01*
X263870Y156870D02*
X264500Y157500D01*
X212172Y143500D02*
X215672Y140000D01*
X205031Y135468D02*
X212000Y128500D01*
X219500D01*
X224500Y123500D01*
X172500Y225877D02*
Y233776D01*
X162122Y215500D02*
X172500Y225877D01*
X158000Y215500D02*
X162122D01*
X76000Y208000D02*
X89000Y221000D01*
X70465Y208000D02*
X76000D01*
X64157Y164157D02*
X70465D01*
X239000Y48500D02*
Y56500D01*
D113*
X216900Y142750D02*
X216901D01*
X195819Y137819D02*
X203500Y145500D01*
X165950Y117950D02*
X167050D01*
X164292Y107354D02*
Y116292D01*
X165950Y117950D01*
X182249Y142751D02*
X186981Y138019D01*
X191732Y137819D02*
X195819D01*
X186981Y138019D02*
X190618D01*
X190918Y138319D02*
X191232D01*
X190618Y138019D02*
X190918Y138319D01*
X191232D02*
X191732Y137819D01*
X218900Y76753D02*
X219500D01*
X185747D02*
X218900D01*
X177240Y88371D02*
X192879D01*
X178558Y83942D02*
X185747Y76753D01*
X176619Y87750D02*
X177240Y88371D01*
X175750Y87750D02*
X176619D01*
X178558Y83942D02*
Y85190D01*
X192879Y88371D02*
X193500Y87750D01*
X216901Y142750D02*
X216902Y142751D01*
X214153Y145500D02*
X216902Y142751D01*
X128000Y143500D02*
X157500D01*
X164292Y107354D02*
X169516Y102130D01*
Y93984D02*
X175750Y87750D01*
X169516Y93984D02*
Y102130D01*
X262232Y138024D02*
Y145877D01*
X262500Y137657D02*
Y137756D01*
X262232Y138024D02*
X262500Y137756D01*
X203500Y145500D02*
X214153D01*
X175391Y142751D02*
X182249D01*
X161461Y139500D02*
Y139539D01*
X157500Y143500D02*
X161461Y139539D01*
D116*
X189004Y97716D02*
X204124D01*
X188846Y97874D02*
X189004Y97716D01*
X214724Y96327D02*
X222658D01*
X225692Y93294D01*
X210959Y97379D02*
X211314Y97024D01*
X206418Y97379D02*
X210959D01*
X214027Y97024D02*
X214724Y96327D01*
X211314Y97024D02*
X214027D01*
X206064D02*
X206418Y97379D01*
X204816Y97024D02*
X206064D01*
X224700Y60500D02*
Y73750D01*
X219700Y55500D02*
X224700Y60500D01*
X225692Y74742D02*
Y93294D01*
X224700Y73750D02*
X225692Y74742D01*
X104181Y138319D02*
X114500Y128000D01*
X99181Y138319D02*
X104181D01*
X87834Y149666D02*
X99181Y138319D01*
X204124Y97716D02*
X204816Y97024D01*
X214000Y55500D02*
X219700D01*
X87834Y149666D02*
Y174500D01*
D118*
X173393Y123831D02*
X178201Y119023D01*
Y114263D02*
Y119023D01*
X177669Y113731D02*
X178201Y114263D01*
X177669Y108205D02*
Y113731D01*
X163961Y123500D02*
X164292D01*
X164623Y123831D01*
X157614Y121000D02*
X161461D01*
X163961Y123500D01*
X164623Y123831D02*
X173393D01*
X177669Y108205D02*
X189000Y96874D01*
D120*
X36809Y46278D02*
X194604D01*
X200204Y51878D02*
X204184D01*
X194604Y46278D02*
X200204Y51878D01*
X204184D02*
X208109D01*
D122*
X272200Y238200D02*
X275681Y241681D01*
X284712D02*
X284993Y241400D01*
X275681Y241681D02*
X284712D01*
X286900Y241400D02*
X289600Y238700D01*
X284993Y241400D02*
X286900D01*
X272200Y222751D02*
Y238200D01*
X269600Y220151D02*
X272200Y222751D01*
X269600Y219929D02*
Y220151D01*
X263742Y214071D02*
X269600Y219929D01*
X246400Y219654D02*
X251983Y214071D01*
X239506Y219654D02*
X246400D01*
X239152Y219300D02*
X239506Y219654D01*
X236900Y219300D02*
X239152D01*
X230500Y212900D02*
X236900Y219300D01*
X251983Y214071D02*
X263742D01*
X289600Y140500D02*
Y238700D01*
X230500Y169600D02*
Y212900D01*
D152*
X102500Y157000D02*
D03*
X112500D02*
D03*
X122500D02*
D03*
D153*
X121198Y118100D02*
D03*
X114498Y128100D02*
D03*
X107797Y118100D02*
D03*
X101096Y128100D02*
D03*
X94395Y118100D02*
D03*
D154*
X220031Y31950D02*
D03*
X51032D02*
D03*
X69532Y29750D02*
D03*
X86032D02*
D03*
X102532D02*
D03*
X152032D02*
D03*
X135531D02*
D03*
X119032D02*
D03*
X201532D02*
D03*
X185031D02*
D03*
X168532D02*
D03*
Y8050D02*
D03*
X185031D02*
D03*
X201532D02*
D03*
X119032D02*
D03*
X135531D02*
D03*
X152032D02*
D03*
X102532D02*
D03*
X86032D02*
D03*
X69532D02*
D03*
D155*
X73466Y280500D02*
D03*
X161024Y280968D02*
D03*
D156*
X101667Y280500D02*
D03*
X132823Y280968D02*
D03*
D157*
X285252Y84567D02*
D03*
X285673Y63496D02*
D03*
X246100Y27150D02*
D03*
D158*
X285252Y74567D02*
D03*
X285673Y53496D02*
D03*
D159*
X236100Y27150D02*
D03*
D160*
X25000Y245500D02*
D03*
Y235500D02*
D03*
Y225500D02*
D03*
Y215500D02*
D03*
Y205500D02*
D03*
Y195500D02*
D03*
Y185500D02*
D03*
Y175500D02*
D03*
Y165500D02*
D03*
Y155500D02*
D03*
Y145500D02*
D03*
Y135500D02*
D03*
Y125500D02*
D03*
Y115500D02*
D03*
Y105500D02*
D03*
Y95500D02*
D03*
Y85500D02*
D03*
Y75500D02*
D03*
Y65500D02*
D03*
X140500Y86000D02*
D03*
X217000Y289000D02*
D03*
D161*
X25000Y55500D02*
D03*
D162*
X130500Y86000D02*
D03*
X227000Y289000D02*
D03*
D163*
X275000Y25000D02*
D03*
X25000D02*
D03*
X275000Y275000D02*
D03*
X25000D02*
D03*
X251300Y232000D02*
D03*
X258500Y232500D02*
D03*
X87834Y174500D02*
D03*
D164*
X160000Y181500D02*
D03*
Y171500D02*
D03*
D165*
Y161500D02*
D03*
D166*
X179000Y245000D02*
D03*
X169000D02*
D03*
X69000Y221000D02*
D03*
X79000D02*
D03*
D167*
X159000Y245000D02*
D03*
X89000Y221000D02*
D03*
D168*
X69000Y245000D02*
D03*
D169*
X89000D02*
D03*
D170*
X215000Y87000D02*
D03*
X204370D02*
D03*
D171*
X193740D02*
D03*
D172*
X80010Y45478D02*
D03*
X145500Y83000D02*
D03*
X272000Y99000D02*
D03*
X242500Y239961D02*
D03*
X219892Y77144D02*
D03*
X174350Y135400D02*
D03*
X123445Y45478D02*
D03*
X145907Y45199D02*
D03*
X168495D02*
D03*
X187676D02*
D03*
X101941Y45478D02*
D03*
X59109D02*
D03*
X36703Y46010D02*
D03*
X204184Y51878D02*
D03*
X209600Y49100D02*
D03*
X241243Y67361D02*
D03*
X223449Y46905D02*
D03*
X150469Y206350D02*
D03*
X215431Y257368D02*
D03*
X101500Y242800D02*
D03*
D173*
X230500Y169600D02*
D03*
X296211Y143500D02*
D03*
Y152500D02*
D03*
Y160584D02*
D03*
D174*
X228000Y154000D02*
D03*
X224700Y138500D02*
D03*
X220765Y139000D02*
D03*
X216900Y142750D02*
D03*
X205031Y140500D02*
D03*
X230800Y135850D02*
D03*
X217558Y107819D02*
D03*
X208689Y91898D02*
D03*
X167050Y117950D02*
D03*
X185400Y116500D02*
D03*
X279750Y234500D02*
D03*
X264500Y226010D02*
D03*
X254751Y220752D02*
D03*
X254740Y109500D02*
D03*
X234250Y114887D02*
D03*
X276500Y171000D02*
D03*
X264433Y161447D02*
D03*
X189300Y141200D02*
D03*
X193050Y141000D02*
D03*
X178558Y85190D02*
D03*
X189076Y108500D02*
D03*
X194750Y120750D02*
D03*
X167850Y145650D02*
D03*
X128000Y143500D02*
D03*
X157500Y138319D02*
D03*
X191252Y116259D02*
D03*
X160604Y145877D02*
D03*
X269500Y178500D02*
D03*
X270000Y175500D02*
D03*
X262232Y145877D02*
D03*
X224500Y117000D02*
D03*
X262500Y137657D02*
D03*
X265000Y109000D02*
D03*
X195500Y129900D02*
D03*
X175391Y142751D02*
D03*
X224000Y120000D02*
D03*
X220500Y118000D02*
D03*
X157614Y121000D02*
D03*
X224500Y123500D02*
D03*
X161461Y139500D02*
D03*
D175*
X189284Y155000D02*
D03*
X158000Y215500D02*
D03*
X172500Y233776D02*
D03*
X209500Y245000D02*
D03*
D176*
X197624Y104914D02*
D03*
X215268Y102800D02*
D03*
X172801Y116500D02*
D03*
X167510Y111787D02*
D03*
X81604Y256500D02*
D03*
X79448Y155174D02*
D03*
X251808Y120825D02*
D03*
X230400Y70500D02*
D03*
X219000Y67350D02*
D03*
X200900Y104950D02*
D03*
X70300Y168300D02*
D03*
X131000Y200413D02*
D03*
X205031Y116419D02*
D03*
X109000Y194000D02*
D03*
X70465Y208000D02*
D03*
X64157Y164157D02*
D03*
X238998Y53734D02*
D03*
D177*
X222658Y96327D02*
D03*
X189000Y96874D02*
D03*
X226139Y94000D02*
D03*
X214000Y55500D02*
D03*
X219700D02*
D03*
D178*
X183246Y69722D02*
D03*
X139787Y70026D02*
D03*
X117727Y70049D02*
D03*
X74130Y69978D02*
D03*
X52509Y69778D02*
D03*
X183207Y225036D02*
D03*
X247764Y45421D02*
D03*
X150469Y132212D02*
D03*
X148000Y235775D02*
D03*
X133409Y212000D02*
D03*
X253514Y289900D02*
D03*
X234900D02*
D03*
X206191Y67928D02*
D03*
X215547Y244000D02*
D03*
X45000Y205240D02*
D03*
X161129Y70055D02*
D03*
X96372D02*
D03*
X116500Y225917D02*
D03*
X118000Y105000D02*
D03*
D179*
X242650Y212764D02*
D03*
D180*
X246766Y128591D02*
D03*
X247731Y99673D02*
D03*
X291016Y248900D02*
D03*
X288100D02*
D03*
D181*
X121847Y182761D02*
D03*
X74700Y140712D02*
D03*
D182*
X228581Y232081D02*
X250245D01*
X251300Y232000D02*
Y232026D01*
X250826Y232500D02*
X251300Y232026D01*
Y232000D02*
X258000D01*
X258500Y232500D01*
X168000Y171500D02*
X228581Y232081D01*
X250326Y232000D02*
X250826Y232500D01*
X160000Y171500D02*
X168000D01*
M02*
