G04*
G04 #@! TF.GenerationSoftware,Altium Limited,Altium Designer,19.1.9 (167)*
G04*
G04 Layer_Color=8421504*
%FSLAX25Y25*%
%MOIN*%
G70*
G01*
G75*
%ADD20R,0.12520X0.51968*%
%ADD21R,0.08465X0.16929*%
G04:AMPARAMS|DCode=22|XSize=110.24mil|YSize=110.24mil|CornerRadius=27.56mil|HoleSize=0mil|Usage=FLASHONLY|Rotation=90.000|XOffset=0mil|YOffset=0mil|HoleType=Round|Shape=RoundedRectangle|*
%AMROUNDEDRECTD22*
21,1,0.11024,0.05512,0,0,90.0*
21,1,0.05512,0.11024,0,0,90.0*
1,1,0.05512,0.02756,0.02756*
1,1,0.05512,0.02756,-0.02756*
1,1,0.05512,-0.02756,-0.02756*
1,1,0.05512,-0.02756,0.02756*
%
%ADD22ROUNDEDRECTD22*%
%ADD23R,0.01181X0.05709*%
%ADD24R,0.18701X0.10787*%
%ADD25R,0.04000X0.02200*%
%ADD26R,0.13780X0.07284*%
%ADD27R,0.02165X0.02362*%
%ADD28R,0.02559X0.04724*%
%ADD29R,0.01968X0.01575*%
%ADD30R,0.04724X0.02559*%
%ADD31R,0.02362X0.01968*%
%ADD32R,0.01968X0.02362*%
%ADD33R,0.06890X0.04724*%
%ADD34R,0.02362X0.02165*%
%ADD35R,0.02165X0.02165*%
%ADD36R,0.02165X0.02165*%
%ADD37R,0.06004X0.02756*%
%ADD38R,0.02362X0.03347*%
%ADD39R,0.02362X0.04724*%
%ADD40R,0.04724X0.02362*%
%ADD41R,0.05906X0.07480*%
%ADD42R,0.03740X0.04134*%
%ADD43R,0.02835X0.02992*%
%ADD44R,0.02598X0.02441*%
%ADD45R,0.01575X0.01968*%
%ADD46R,0.02559X0.04134*%
%ADD47R,0.03347X0.02362*%
%ADD48R,0.10236X0.04331*%
%ADD49R,0.10236X0.06299*%
%ADD50R,0.05512X0.04331*%
%ADD51R,0.04331X0.05512*%
%ADD52R,0.02756X0.06004*%
D20*
X230913Y177500D02*
D03*
X189181D02*
D03*
D21*
X122500Y255609D02*
D03*
Y222538D02*
D03*
D22*
X66520Y95571D02*
D03*
X67020Y129429D02*
D03*
D23*
X189284Y111984D02*
D03*
X191252D02*
D03*
X193220D02*
D03*
X195189D02*
D03*
X197158D02*
D03*
X199126D02*
D03*
X201095D02*
D03*
X203063D02*
D03*
X205031D02*
D03*
X207000D02*
D03*
X208968D02*
D03*
X210937D02*
D03*
X212906D02*
D03*
X214874D02*
D03*
X216843D02*
D03*
X218811D02*
D03*
X220779D02*
D03*
X222748D02*
D03*
X224716D02*
D03*
Y135016D02*
D03*
X222748D02*
D03*
X220779D02*
D03*
X218811D02*
D03*
X216843D02*
D03*
X214874D02*
D03*
X212906D02*
D03*
X210937D02*
D03*
X208968D02*
D03*
X207000D02*
D03*
X205031D02*
D03*
X203063D02*
D03*
X201095D02*
D03*
X199126D02*
D03*
X197158D02*
D03*
X195189D02*
D03*
X193220D02*
D03*
X191252D02*
D03*
X189284D02*
D03*
D24*
X207000Y123500D02*
D03*
D25*
X270650Y229740D02*
D03*
Y226000D02*
D03*
Y222260D02*
D03*
X281350D02*
D03*
Y226000D02*
D03*
Y229740D02*
D03*
D26*
X255433Y100000D02*
D03*
X234567D02*
D03*
X255433Y128500D02*
D03*
X234567D02*
D03*
D27*
X150000Y140227D02*
D03*
Y143573D02*
D03*
X154100Y143473D02*
D03*
Y140127D02*
D03*
X171968Y145173D02*
D03*
Y141827D02*
D03*
X183500Y136827D02*
D03*
Y140173D02*
D03*
X288500Y99673D02*
D03*
Y96327D02*
D03*
X261500Y107327D02*
D03*
Y110673D02*
D03*
X183860Y108145D02*
D03*
Y111491D02*
D03*
D28*
X283500Y171658D02*
D03*
X278500D02*
D03*
X273500D02*
D03*
X268500D02*
D03*
X268100Y149535D02*
D03*
X273400D02*
D03*
X278600D02*
D03*
X283900D02*
D03*
X282240Y140173D02*
D03*
X277240D02*
D03*
X272240D02*
D03*
X267240D02*
D03*
X266840Y118051D02*
D03*
X272140D02*
D03*
X277340D02*
D03*
X282640D02*
D03*
X246000Y153378D02*
D03*
X251000D02*
D03*
X256000D02*
D03*
X261000D02*
D03*
X261400Y175500D02*
D03*
X256100D02*
D03*
X250900D02*
D03*
X245600D02*
D03*
X261000Y211122D02*
D03*
X256000D02*
D03*
X251000D02*
D03*
X246000D02*
D03*
X245600Y189000D02*
D03*
X250900D02*
D03*
X256100D02*
D03*
X261400D02*
D03*
D29*
X266000Y217185D02*
D03*
Y214035D02*
D03*
X178000Y136925D02*
D03*
Y140075D02*
D03*
D30*
X268378Y197000D02*
D03*
Y192000D02*
D03*
Y187000D02*
D03*
Y182000D02*
D03*
X290500Y181600D02*
D03*
Y186900D02*
D03*
Y192100D02*
D03*
Y197400D02*
D03*
D31*
X153578Y215721D02*
D03*
X149641D02*
D03*
X146531Y219500D02*
D03*
X150469D02*
D03*
X66937Y198350D02*
D03*
X63000D02*
D03*
X225031Y277500D02*
D03*
X228969D02*
D03*
X228969Y274000D02*
D03*
X225031D02*
D03*
X265504Y60500D02*
D03*
X269441D02*
D03*
X213531Y239415D02*
D03*
X217469D02*
D03*
X221532Y239469D02*
D03*
X225468D02*
D03*
X235531Y239634D02*
D03*
X239469D02*
D03*
X256941Y84000D02*
D03*
X253004D02*
D03*
X226532Y84000D02*
D03*
X230469D02*
D03*
X185031Y102000D02*
D03*
X188969D02*
D03*
X168032Y215721D02*
D03*
X171968D02*
D03*
X62968Y202000D02*
D03*
X66905D02*
D03*
X63032Y205500D02*
D03*
X66969D02*
D03*
X170551Y119500D02*
D03*
X174488D02*
D03*
D32*
X161232Y205031D02*
D03*
Y208968D02*
D03*
X140000Y211910D02*
D03*
Y207972D02*
D03*
X136114Y208032D02*
D03*
Y211968D02*
D03*
X188100Y234469D02*
D03*
Y230532D02*
D03*
X180000Y228969D02*
D03*
Y225031D02*
D03*
X148000Y228532D02*
D03*
Y232469D02*
D03*
X130500Y109031D02*
D03*
Y112969D02*
D03*
X94500Y99032D02*
D03*
Y102969D02*
D03*
X246500Y291437D02*
D03*
Y287500D02*
D03*
X242500Y291469D02*
D03*
Y287531D02*
D03*
X209500Y251969D02*
D03*
Y248031D02*
D03*
X256754Y52250D02*
D03*
Y56187D02*
D03*
X250500Y291469D02*
D03*
Y287531D02*
D03*
X238400Y291469D02*
D03*
Y287531D02*
D03*
X215547Y252969D02*
D03*
Y249031D02*
D03*
X81417Y166532D02*
D03*
Y170468D02*
D03*
X239002Y47203D02*
D03*
Y43266D02*
D03*
X257004Y76531D02*
D03*
Y80468D02*
D03*
X212709Y49358D02*
D03*
Y45421D02*
D03*
X186624Y48077D02*
D03*
Y52014D02*
D03*
X186624Y56045D02*
D03*
Y59982D02*
D03*
X165624Y48041D02*
D03*
Y51978D02*
D03*
X165624Y56010D02*
D03*
Y59947D02*
D03*
X144364Y48077D02*
D03*
Y52014D02*
D03*
X144364Y56045D02*
D03*
Y59982D02*
D03*
X122364Y48309D02*
D03*
Y52246D02*
D03*
X122364Y56278D02*
D03*
Y60215D02*
D03*
X100864Y48344D02*
D03*
Y52281D02*
D03*
X100864Y56313D02*
D03*
Y60250D02*
D03*
X78864Y48041D02*
D03*
Y51978D02*
D03*
X78864Y56010D02*
D03*
Y59947D02*
D03*
X57364Y48278D02*
D03*
Y52215D02*
D03*
X57364Y56246D02*
D03*
Y60183D02*
D03*
X35364Y48278D02*
D03*
Y52215D02*
D03*
X35364Y56246D02*
D03*
Y60183D02*
D03*
X184600Y234469D02*
D03*
Y230532D02*
D03*
X144150Y99032D02*
D03*
Y102969D02*
D03*
X246500Y283437D02*
D03*
Y279500D02*
D03*
X242500Y283437D02*
D03*
Y279500D02*
D03*
X250500Y283000D02*
D03*
Y279063D02*
D03*
X238500Y283437D02*
D03*
Y279500D02*
D03*
D33*
X289500Y231618D02*
D03*
Y221382D02*
D03*
X278500Y107118D02*
D03*
Y96882D02*
D03*
D34*
X217991Y102938D02*
D03*
X221337D02*
D03*
D35*
X229563Y118772D02*
D03*
Y115228D02*
D03*
D36*
X255232Y146000D02*
D03*
X258776D02*
D03*
D37*
X172177Y83590D02*
D03*
Y88590D02*
D03*
Y93590D02*
D03*
Y98590D02*
D03*
Y103590D02*
D03*
Y108590D02*
D03*
Y113590D02*
D03*
X150823D02*
D03*
Y108590D02*
D03*
Y103590D02*
D03*
Y98590D02*
D03*
Y93590D02*
D03*
Y88590D02*
D03*
Y83590D02*
D03*
D38*
X195624Y54510D02*
D03*
X199364Y46045D02*
D03*
X191884D02*
D03*
X198274Y59263D02*
D03*
X194534Y67728D02*
D03*
X202014D02*
D03*
X174624Y54474D02*
D03*
X178364Y46010D02*
D03*
X170884D02*
D03*
X174624Y61278D02*
D03*
X170884Y69742D02*
D03*
X178364D02*
D03*
X153364Y54510D02*
D03*
X157104Y46045D02*
D03*
X149624D02*
D03*
X153364Y61313D02*
D03*
X149624Y69778D02*
D03*
X157104D02*
D03*
X131364Y54742D02*
D03*
X135104Y46278D02*
D03*
X127624D02*
D03*
X131364Y61545D02*
D03*
X127624Y70010D02*
D03*
X135104D02*
D03*
X109864Y54778D02*
D03*
X113604Y46313D02*
D03*
X106124D02*
D03*
X109864Y61581D02*
D03*
X106124Y70045D02*
D03*
X113604D02*
D03*
X87864Y54474D02*
D03*
X91604Y46010D02*
D03*
X84124D02*
D03*
X87864Y61278D02*
D03*
X84124Y69742D02*
D03*
X91604D02*
D03*
X66364Y54711D02*
D03*
X70104Y46246D02*
D03*
X62624D02*
D03*
X66364Y61514D02*
D03*
X62624Y69978D02*
D03*
X70104D02*
D03*
X44364Y54711D02*
D03*
X48104Y46246D02*
D03*
X40624D02*
D03*
X44364Y61514D02*
D03*
X40624Y69978D02*
D03*
X48104D02*
D03*
X247764Y55724D02*
D03*
X251504Y47260D02*
D03*
X244024D02*
D03*
X265504Y80732D02*
D03*
X269244Y72268D02*
D03*
X261764D02*
D03*
X248504Y79732D02*
D03*
X252244Y71268D02*
D03*
X244764D02*
D03*
D39*
X66520Y164157D02*
D03*
X70260D02*
D03*
X74000D02*
D03*
Y174000D02*
D03*
X66520D02*
D03*
X227189Y51764D02*
D03*
X223449D02*
D03*
X219709D02*
D03*
Y41921D02*
D03*
X227189D02*
D03*
D40*
X145679Y210272D02*
D03*
Y206532D02*
D03*
Y202791D02*
D03*
X155521D02*
D03*
Y210272D02*
D03*
X155683Y132240D02*
D03*
Y128500D02*
D03*
Y124760D02*
D03*
X165525D02*
D03*
Y132240D02*
D03*
D41*
X140905Y182500D02*
D03*
X129095D02*
D03*
D42*
X260854Y224500D02*
D03*
X255146D02*
D03*
D43*
X267500Y100961D02*
D03*
Y97102D02*
D03*
D44*
X200043Y101500D02*
D03*
X196579D02*
D03*
D45*
X213075Y141500D02*
D03*
X209925D02*
D03*
X230575Y139872D02*
D03*
X227425D02*
D03*
X177925Y132500D02*
D03*
X181075D02*
D03*
D46*
X205510Y103500D02*
D03*
X212203D02*
D03*
D47*
X175232Y229750D02*
D03*
X166768Y226010D02*
D03*
Y233490D02*
D03*
X161232Y229500D02*
D03*
X152768Y225760D02*
D03*
Y233240D02*
D03*
X58000Y201500D02*
D03*
X49535Y197760D02*
D03*
Y205240D02*
D03*
X270236Y52000D02*
D03*
X261772Y48260D02*
D03*
Y55740D02*
D03*
X259250Y38016D02*
D03*
X250785Y34276D02*
D03*
Y41756D02*
D03*
X230539Y75240D02*
D03*
X239004Y78980D02*
D03*
Y71500D02*
D03*
D48*
X199000Y274130D02*
D03*
Y263500D02*
D03*
X44000Y280130D02*
D03*
Y269500D02*
D03*
D49*
X104913Y98500D02*
D03*
X119087D02*
D03*
X55000Y148000D02*
D03*
X69173D02*
D03*
D50*
X136500Y114406D02*
D03*
Y108500D02*
D03*
D51*
X215953Y76500D02*
D03*
X210047D02*
D03*
X195500Y76500D02*
D03*
X201406D02*
D03*
D52*
X249700Y267854D02*
D03*
X244700D02*
D03*
X239700D02*
D03*
X234700D02*
D03*
X229700D02*
D03*
X224700D02*
D03*
X219700D02*
D03*
Y246500D02*
D03*
X224700D02*
D03*
X229700D02*
D03*
X234700D02*
D03*
X239700D02*
D03*
X244700D02*
D03*
X249700D02*
D03*
M02*
