G04*
G04 #@! TF.GenerationSoftware,Altium Limited,Altium Designer,19.0.15 (446)*
G04*
G04 Layer_Physical_Order=1*
G04 Layer_Color=255*
%FSLAX25Y25*%
%MOIN*%
G70*
G01*
G75*
%ADD10C,0.01000*%
%ADD29C,0.04000*%
%ADD30C,0.20000*%
%ADD31C,0.03000*%
%ADD32R,0.06811X0.03819*%
%ADD33C,0.08000*%
%ADD34R,0.06201X0.06201*%
%ADD35C,0.06201*%
%ADD36C,0.20000*%
%ADD37C,0.06000*%
%ADD38C,0.10949*%
%ADD39C,0.05315*%
%ADD40R,0.20079X0.20079*%
%ADD41C,0.20079*%
%ADD42C,0.06378*%
%ADD43C,0.05197*%
%ADD44C,0.21378*%
%ADD45C,0.06496*%
%ADD46C,0.12402*%
D10*
X9367Y447367D02*
G03*
X0Y438000I0J-9367D01*
G01*
Y13500D02*
G03*
X11500Y0I12500J-1000D01*
G01*
X312500D02*
G03*
X328000Y15500I-0J15500D01*
G01*
X328027Y434493D02*
G03*
X314000Y447367I-13521J-654D01*
G01*
X9367D02*
X16439D01*
X0Y429143D02*
Y438000D01*
X313133Y447367D02*
X313834D01*
X11500Y0D02*
X312500D01*
X328000Y15500D02*
Y434500D01*
X16439Y447367D02*
X313133D01*
X0Y13500D02*
Y429143D01*
D29*
X145524Y338000D02*
G03*
X138453Y335071I0J-10000D01*
G01*
X298000Y311358D02*
G03*
X295071Y318429I-10000J0D01*
G01*
X275500Y338000D02*
X295071Y318429D01*
X145524Y338000D02*
X275500D01*
X40500Y237118D02*
X138453Y335071D01*
X298000Y95500D02*
Y311358D01*
D30*
X227169Y154811D02*
G03*
X234240Y157740I0J10000D01*
G01*
X184500Y90020D02*
G03*
X187429Y82949I10000J0D01*
G01*
X210515Y100393D02*
Y133500D01*
X210500Y100378D02*
X210515Y100393D01*
X207000Y154811D02*
X227169D01*
X267000Y190500D02*
Y281500D01*
X234240Y157740D02*
X267000Y190500D01*
X187429Y82949D02*
X210500Y59878D01*
X184500Y90020D02*
Y125506D01*
X78287Y190500D02*
X102500D01*
X66000Y178213D02*
X78287Y190500D01*
X66000Y157685D02*
Y178213D01*
X102500Y190500D02*
X123000Y170000D01*
Y95000D02*
Y170000D01*
X256000Y36000D02*
X280000Y60000D01*
X182000Y36000D02*
X256000D01*
X123000Y95000D02*
X182000Y36000D01*
X110185Y281213D02*
X184000Y207398D01*
Y146500D02*
Y207398D01*
X225500Y323000D02*
X267000Y281500D01*
D31*
X210040Y81460D02*
G03*
X217111Y78531I7071J7071D01*
G01*
X197500Y138793D02*
G03*
X197000Y140000I-1707J0D01*
G01*
X196102Y140898D02*
G03*
X189031Y143827I-7071J-7071D01*
G01*
X197500Y94000D02*
X210040Y81460D01*
X197500Y94000D02*
Y138793D01*
X184500Y143827D02*
X189031D01*
X196102Y140898D02*
X197000Y140000D01*
X261031Y78531D02*
X278000Y95500D01*
X217111Y78531D02*
X261031D01*
D32*
X211000Y138000D02*
D03*
Y149653D02*
D03*
X184500Y132173D02*
D03*
Y143827D02*
D03*
D33*
X71685Y152000D02*
X81000D01*
X49000D02*
X71685D01*
X81000Y172000D02*
X90500D01*
X95500Y146500D02*
Y167000D01*
X90500Y172000D02*
X95500Y167000D01*
X80189Y131189D02*
X95500Y146500D01*
X11500Y131189D02*
X80189D01*
X45500Y175500D02*
X49000Y172000D01*
X12000Y175500D02*
X45500D01*
D34*
X278000Y95500D02*
D03*
D35*
X288000D02*
D03*
X298000D02*
D03*
D36*
X226000Y217315D02*
D03*
Y256685D02*
D03*
D37*
X168000Y17500D02*
D03*
Y430000D02*
D03*
X37000Y17500D02*
D03*
Y430000D02*
D03*
X298500D02*
D03*
Y17500D02*
D03*
D38*
X160500Y95000D02*
D03*
X123000D02*
D03*
X30000D02*
D03*
X67500D02*
D03*
D39*
X81000Y152000D02*
D03*
Y162000D02*
D03*
Y172000D02*
D03*
X49000D02*
D03*
Y162000D02*
D03*
Y152000D02*
D03*
D40*
X308201Y60000D02*
D03*
X238701Y59878D02*
D03*
Y100378D02*
D03*
D41*
X280000Y60000D02*
D03*
X210500Y59878D02*
D03*
Y100378D02*
D03*
D42*
X11500Y143000D02*
D03*
Y131189D02*
D03*
X12000Y187311D02*
D03*
Y175500D02*
D03*
D43*
X19217Y119378D02*
D03*
Y154811D02*
D03*
X19716Y163689D02*
D03*
Y199122D02*
D03*
D44*
X110185Y382000D02*
D03*
Y337906D02*
D03*
Y281213D02*
D03*
Y237118D02*
D03*
X40500Y382000D02*
D03*
Y237118D02*
D03*
D45*
X275500Y378000D02*
D03*
Y338000D02*
D03*
D46*
X225500Y323000D02*
D03*
X185500Y393000D02*
D03*
M02*
