M48
;Layer_Color=9474304
;FILE_FORMAT=2:5
INCH,TZ
;TYPE=PLATED
T1F00S00C0.03346
T2F00S00C0.04134
T3F00S00C0.04213
T4F00S00C0.04331
T5F00S00C0.07300
T6F00S00C0.08268
T7F00S00C0.12600
T8F00S00C0.13386
T9F00S00C0.13455
;TYPE=NON_PLATED
T10F00S00C0.05197
%
T01
X81000Y152000
Y162000
Y172000
X49000
Y162000
Y152000
T02
X278000Y95500
X288000
X298000
T03
X11500Y131189
Y143000
X12000Y175500
Y187311
T04
X275500Y338000
Y378000
T05
X67500Y95000
X123000
X160500
X30000
T06
X226000Y217315
X185500Y393000
X225500Y323000
X226000Y256685
T07
X37000Y17500
X168000
X298500
Y430000
X168000
X37000
T08
X210500Y59878
X238701
X280000Y60000
X308201
X238701Y100378
X210500
T09
X110185Y237118
X40500
Y382000
X110185
Y337906
Y281213
T10
X19217Y119378
Y154811
X19716Y163689
Y199122
M30
