G04*
G04 #@! TF.GenerationSoftware,Altium Limited,Altium Designer,19.1.9 (167)*
G04*
G04 Layer_Color=128*
%FSLAX25Y25*%
%MOIN*%
G70*
G01*
G75*
%ADD19C,0.00200*%
D19*
X100827Y157000D02*
X104173D01*
X102500Y155327D02*
Y158673D01*
X110827Y157000D02*
X114173D01*
X112500Y155327D02*
Y158673D01*
X120827Y157000D02*
X124173D01*
X122500Y155327D02*
Y158673D01*
X118935Y118100D02*
X123462D01*
X121198Y115836D02*
Y120364D01*
X112234Y128100D02*
X116761D01*
X114498Y125836D02*
Y130364D01*
X105533Y118100D02*
X110061D01*
X107797Y115836D02*
Y120364D01*
X98832Y128100D02*
X103360D01*
X101096Y125836D02*
Y130364D01*
X92132Y118100D02*
X96659D01*
X94395Y115836D02*
Y120364D01*
X214131Y31950D02*
X225932D01*
X220031Y26050D02*
Y37850D01*
X45131Y31950D02*
X56932D01*
X51032Y26050D02*
Y37850D01*
X66181Y29750D02*
X72882D01*
X69532Y26400D02*
Y33100D01*
X82682Y29750D02*
X89381D01*
X86032Y26400D02*
Y33100D01*
X99181Y29750D02*
X105882D01*
X102532Y26400D02*
Y33100D01*
X148681Y29750D02*
X155382D01*
X152032Y26400D02*
Y33100D01*
X132182Y29750D02*
X138882D01*
X135531Y26400D02*
Y33100D01*
X115682Y29750D02*
X122381D01*
X119032Y26400D02*
Y33100D01*
X198181Y29750D02*
X204882D01*
X201532Y26400D02*
Y33100D01*
X181682Y29750D02*
X188382D01*
X185031Y26400D02*
Y33100D01*
X165182Y29750D02*
X171881D01*
X168532Y26400D02*
Y33100D01*
X165182Y8050D02*
X171881D01*
X168532Y4700D02*
Y11400D01*
X181682Y8050D02*
X188382D01*
X185031Y4700D02*
Y11400D01*
X198181Y8050D02*
X204882D01*
X201532Y4700D02*
Y11400D01*
X115682Y8050D02*
X122381D01*
X119032Y4700D02*
Y11400D01*
X132182Y8050D02*
X138882D01*
X135531Y4700D02*
Y11400D01*
X148681Y8050D02*
X155382D01*
X152032Y4700D02*
Y11400D01*
X99181Y8050D02*
X105882D01*
X102532Y4700D02*
Y11400D01*
X82682Y8050D02*
X89381D01*
X86032Y4700D02*
Y11400D01*
X66181Y8050D02*
X72882D01*
X69532Y4700D02*
Y11400D01*
X66773Y280500D02*
X80159D01*
X73466Y273807D02*
Y287193D01*
X94974Y280500D02*
X108360D01*
X101667Y273807D02*
Y287193D01*
X154331Y280968D02*
X167717D01*
X161024Y274276D02*
Y287661D01*
X126130Y280968D02*
X139516D01*
X132823Y274276D02*
Y287661D01*
X282988Y84567D02*
X287516D01*
X285252Y82303D02*
Y86831D01*
X282988Y74567D02*
X287516D01*
X285252Y72303D02*
Y76831D01*
X283410Y63496D02*
X287937D01*
X285673Y61232D02*
Y65760D01*
X283410Y53496D02*
X287937D01*
X285673Y51232D02*
Y55760D01*
X243836Y27150D02*
X248364D01*
X246100Y24886D02*
Y29414D01*
X233836Y27150D02*
X238364D01*
X236100Y24886D02*
Y29414D01*
X23228Y245500D02*
X26772D01*
X25000Y243728D02*
Y247272D01*
X23228Y235500D02*
X26772D01*
X25000Y233728D02*
Y237272D01*
X23228Y225500D02*
X26772D01*
X25000Y223728D02*
Y227272D01*
X23228Y215500D02*
X26772D01*
X25000Y213728D02*
Y217272D01*
X23228Y205500D02*
X26772D01*
X25000Y203728D02*
Y207272D01*
X23228Y195500D02*
X26772D01*
X25000Y193728D02*
Y197272D01*
X23228Y185500D02*
X26772D01*
X25000Y183728D02*
Y187272D01*
X23228Y175500D02*
X26772D01*
X25000Y173728D02*
Y177272D01*
X23228Y165500D02*
X26772D01*
X25000Y163728D02*
Y167272D01*
X23228Y155500D02*
X26772D01*
X25000Y153728D02*
Y157272D01*
X23228Y145500D02*
X26772D01*
X25000Y143728D02*
Y147272D01*
X23228Y135500D02*
X26772D01*
X25000Y133728D02*
Y137272D01*
X23228Y125500D02*
X26772D01*
X25000Y123728D02*
Y127272D01*
X23228Y115500D02*
X26772D01*
X25000Y113728D02*
Y117272D01*
X23228Y105500D02*
X26772D01*
X25000Y103728D02*
Y107272D01*
X23228Y95500D02*
X26772D01*
X25000Y93728D02*
Y97272D01*
X23228Y85500D02*
X26772D01*
X25000Y83728D02*
Y87272D01*
X23228Y75500D02*
X26772D01*
X25000Y73728D02*
Y77272D01*
X23228Y65500D02*
X26772D01*
X25000Y63728D02*
Y67272D01*
X23228Y55500D02*
X26772D01*
X25000Y53728D02*
Y57272D01*
X128728Y86000D02*
X132272D01*
X130500Y84228D02*
Y87772D01*
X138728Y86000D02*
X142272D01*
X140500Y84228D02*
Y87772D01*
X269094Y25000D02*
X280906D01*
X275000Y19094D02*
Y30906D01*
X19094Y25000D02*
X30906D01*
X25000Y19094D02*
Y30906D01*
X269094Y275000D02*
X280906D01*
X275000Y269094D02*
Y280906D01*
X19094Y275000D02*
X30906D01*
X25000Y269094D02*
Y280906D01*
X158031Y181500D02*
X161969D01*
X160000Y179532D02*
Y183468D01*
X158031Y171500D02*
X161969D01*
X160000Y169532D02*
Y173468D01*
X158031Y161500D02*
X161969D01*
X160000Y159531D02*
Y163469D01*
X177032Y245000D02*
X180968D01*
X179000Y243032D02*
Y246969D01*
X167032Y245000D02*
X170968D01*
X169000Y243032D02*
Y246969D01*
X157032Y245000D02*
X160968D01*
X159000Y243032D02*
Y246969D01*
X66835Y245000D02*
X71165D01*
X69000Y242835D02*
Y247165D01*
X86835Y245000D02*
X91165D01*
X89000Y242835D02*
Y247165D01*
X67032Y221000D02*
X70969D01*
X69000Y219032D02*
Y222969D01*
X77031Y221000D02*
X80968D01*
X79000Y219032D02*
Y222969D01*
X87032Y221000D02*
X90969D01*
X89000Y219032D02*
Y222969D01*
X212402Y87000D02*
X217598D01*
X215000Y84402D02*
Y89598D01*
X201772Y87000D02*
X206968D01*
X204370Y84402D02*
Y89598D01*
X191142Y87000D02*
X196339D01*
X193740Y84402D02*
Y89598D01*
X225228Y289000D02*
X228772D01*
X227000Y287228D02*
Y290772D01*
X215228Y289000D02*
X218772D01*
X217000Y287228D02*
Y290772D01*
X79510Y45478D02*
X80510D01*
X80010Y44978D02*
Y45978D01*
X229100Y169600D02*
X231900D01*
X230500Y168200D02*
Y171000D01*
X227410Y154000D02*
X228590D01*
X228000Y153409D02*
Y154591D01*
X188533Y155000D02*
X190033D01*
X189284Y154250D02*
Y155750D01*
X224110Y138500D02*
X225290D01*
X224700Y137909D02*
Y139091D01*
X220175Y139000D02*
X221356D01*
X220765Y138409D02*
Y139591D01*
X216309Y142750D02*
X217491D01*
X216900Y142159D02*
Y143341D01*
X204441Y140500D02*
X205622D01*
X205031Y139909D02*
Y141091D01*
X230209Y135850D02*
X231391D01*
X230800Y135259D02*
Y136441D01*
X197223Y104914D02*
X198023D01*
X197624Y104514D02*
Y105314D01*
X216968Y107819D02*
X218149D01*
X217558Y107228D02*
Y108410D01*
X221159Y96327D02*
X224159D01*
X222658Y94827D02*
Y97827D01*
X214868Y102800D02*
X215668D01*
X215268Y102400D02*
Y103200D01*
X208098Y91898D02*
X209279D01*
X208689Y91307D02*
Y92488D01*
X294811Y143500D02*
X297611D01*
X296211Y142100D02*
Y144900D01*
X294811Y152500D02*
X297611D01*
X296211Y151100D02*
Y153900D01*
X294811Y160584D02*
X297611D01*
X296211Y159185D02*
Y161985D01*
X182656Y69722D02*
X183837D01*
X183246Y69132D02*
Y70313D01*
X139197Y70026D02*
X140378D01*
X139787Y69435D02*
Y70616D01*
X117136Y70049D02*
X118317D01*
X117727Y69459D02*
Y70640D01*
X145000Y83000D02*
X146000D01*
X145500Y82500D02*
Y83500D01*
X73540Y69978D02*
X74721D01*
X74130Y69388D02*
Y70569D01*
X51919Y69778D02*
X53100D01*
X52509Y69187D02*
Y70368D01*
X271500Y99000D02*
X272500D01*
X272000Y98500D02*
Y99500D01*
X172301Y116500D02*
X173301D01*
X172801Y116000D02*
Y117000D01*
X166459Y117950D02*
X167641D01*
X167050Y117359D02*
Y118541D01*
X167010Y111787D02*
X168010D01*
X167510Y111287D02*
Y112287D01*
X184809Y116500D02*
X185991D01*
X185400Y115909D02*
Y117091D01*
X279159Y234500D02*
X280341D01*
X279750Y233910D02*
Y235090D01*
X263910Y226010D02*
X265090D01*
X264500Y225419D02*
Y226600D01*
X242000Y239961D02*
X243000D01*
X242500Y239461D02*
Y240461D01*
X254160Y220752D02*
X255341D01*
X254751Y220161D02*
Y221342D01*
X249300Y232000D02*
X253300D01*
X251300Y230000D02*
Y234000D01*
X81204Y256500D02*
X82004D01*
X81604Y256100D02*
Y256900D01*
X79048Y155174D02*
X79848D01*
X79448Y154774D02*
Y155574D01*
X254150Y109500D02*
X255331D01*
X254740Y108909D02*
Y110091D01*
X233660Y114887D02*
X234840D01*
X234250Y114296D02*
Y115478D01*
X251308Y120825D02*
X252308D01*
X251808Y120325D02*
Y121325D01*
X275909Y171000D02*
X277091D01*
X276500Y170409D02*
Y171591D01*
X263843Y161447D02*
X265024D01*
X264433Y160856D02*
Y162038D01*
X188709Y141200D02*
X189891D01*
X189300Y140609D02*
Y141791D01*
X192459Y141000D02*
X193641D01*
X193050Y140409D02*
Y141591D01*
X230000Y70500D02*
X230800D01*
X230400Y70100D02*
Y70900D01*
X218600Y67350D02*
X219400D01*
X219000Y66950D02*
Y67750D01*
X219392Y77144D02*
X220392D01*
X219892Y76644D02*
Y77644D01*
X177968Y85190D02*
X179149D01*
X178558Y84600D02*
Y85781D01*
X200500Y104950D02*
X201300D01*
X200900Y104550D02*
Y105350D01*
X188486Y108500D02*
X189667D01*
X189076Y107909D02*
Y109090D01*
X242250Y212764D02*
X243050D01*
X242650Y212364D02*
Y213164D01*
X194159Y120750D02*
X195341D01*
X194750Y120159D02*
Y121341D01*
X167259Y145650D02*
X168441D01*
X167850Y145059D02*
Y146241D01*
X173850Y135400D02*
X174850D01*
X174350Y134900D02*
Y135900D01*
X127409Y143500D02*
X128591D01*
X128000Y142909D02*
Y144091D01*
X156909Y138319D02*
X158091D01*
X157500Y137728D02*
Y138909D01*
X190661Y116259D02*
X191842D01*
X191252Y115668D02*
Y116850D01*
X160013Y145877D02*
X161195D01*
X160604Y145286D02*
Y146467D01*
X182617Y225036D02*
X183798D01*
X183207Y224446D02*
Y225627D01*
X122945Y45478D02*
X123945D01*
X123445Y44978D02*
Y45978D01*
X145407Y45199D02*
X146407D01*
X145907Y44699D02*
Y45699D01*
X167995Y45199D02*
X168995D01*
X168495Y44699D02*
Y45699D01*
X187176Y45199D02*
X188176D01*
X187676Y44699D02*
Y45699D01*
X101441Y45478D02*
X102441D01*
X101941Y44978D02*
Y45978D01*
X58609Y45478D02*
X59610D01*
X59109Y44978D02*
Y45978D01*
X36203Y46010D02*
X37203D01*
X36703Y45510D02*
Y46510D01*
X203684Y51878D02*
X204684D01*
X204184Y51378D02*
Y52378D01*
X209100Y49100D02*
X210100D01*
X209600Y48600D02*
Y49600D01*
X245766Y128591D02*
X247766D01*
X246766Y127591D02*
Y129591D01*
X246731Y99673D02*
X248731D01*
X247731Y98673D02*
Y100673D01*
X240743Y67361D02*
X241743D01*
X241243Y66861D02*
Y67861D01*
X222949Y46905D02*
X223949D01*
X223449Y46406D02*
Y47405D01*
X247173Y45421D02*
X248354D01*
X247764Y44831D02*
Y46012D01*
X149878Y132212D02*
X151059D01*
X150469Y131621D02*
Y132802D01*
X147409Y235775D02*
X148591D01*
X148000Y235185D02*
Y236366D01*
X132819Y212000D02*
X134000D01*
X133409Y211409D02*
Y212591D01*
X149969Y206350D02*
X150969D01*
X150469Y205850D02*
Y206850D01*
X252923Y289900D02*
X254104D01*
X253514Y289310D02*
Y290491D01*
X234310Y289900D02*
X235490D01*
X234900Y289310D02*
Y290491D01*
X214931Y257368D02*
X215931D01*
X215431Y256869D02*
Y257869D01*
X120847Y182761D02*
X122847D01*
X121847Y181761D02*
Y183761D01*
X73700Y140712D02*
X75700D01*
X74700Y139712D02*
Y141712D01*
X69800Y168300D02*
X70800D01*
X70300Y167800D02*
Y168800D01*
X290266Y248900D02*
X291766D01*
X291016Y248150D02*
Y249650D01*
X287350Y248900D02*
X288850D01*
X288100Y248150D02*
Y249650D01*
X268910Y178500D02*
X270091D01*
X269500Y177909D02*
Y179091D01*
X269409Y175500D02*
X270590D01*
X270000Y174909D02*
Y176091D01*
X130500Y200413D02*
X131500D01*
X131000Y199913D02*
Y200913D01*
X101000Y242800D02*
X102000D01*
X101500Y242300D02*
Y243300D01*
X261641Y145877D02*
X262822D01*
X262232Y145286D02*
Y146467D01*
X223909Y117000D02*
X225091D01*
X224500Y116409D02*
Y117591D01*
X261910Y137657D02*
X263090D01*
X262500Y137067D02*
Y138248D01*
X264409Y109000D02*
X265591D01*
X265000Y108409D02*
Y109591D01*
X194909Y129900D02*
X196091D01*
X195500Y129309D02*
Y130491D01*
X256500Y232500D02*
X260500D01*
X258500Y230500D02*
Y234500D01*
X174800Y142751D02*
X175981D01*
X175391Y142161D02*
Y143342D01*
X204631Y116419D02*
X205432D01*
X205031Y116019D02*
Y116819D01*
X223410Y120000D02*
X224590D01*
X224000Y119409D02*
Y120591D01*
X219910Y118000D02*
X221091D01*
X220500Y117409D02*
Y118591D01*
X187500Y96874D02*
X190500D01*
X189000Y95374D02*
Y98374D01*
X157300Y215500D02*
X158700D01*
X158000Y214800D02*
Y216200D01*
X171800Y233776D02*
X173200D01*
X172500Y233076D02*
Y234476D01*
X157024Y121000D02*
X158205D01*
X157614Y120409D02*
Y121591D01*
X224639Y94000D02*
X227639D01*
X226139Y92500D02*
Y95500D01*
X205600Y67928D02*
X206782D01*
X206191Y67338D02*
Y68519D01*
X212500Y55500D02*
X215500D01*
X214000Y54000D02*
Y57000D01*
X218200Y55500D02*
X221200D01*
X219700Y54000D02*
Y57000D01*
X223909Y123500D02*
X225091D01*
X224500Y122909D02*
Y124091D01*
X160870Y139500D02*
X162051D01*
X161461Y138909D02*
Y140091D01*
X86334Y174500D02*
X89334D01*
X87834Y173000D02*
Y176000D01*
X108500Y194000D02*
X109500D01*
X109000Y193500D02*
Y194500D01*
X69965Y208000D02*
X70965D01*
X70465Y207500D02*
Y208500D01*
X208800Y245000D02*
X210200D01*
X209500Y244300D02*
Y245700D01*
X214957Y244000D02*
X216138D01*
X215547Y243409D02*
Y244590D01*
X63757Y164157D02*
X64557D01*
X64157Y163758D02*
Y164558D01*
X238598Y53734D02*
X239398D01*
X238998Y53334D02*
Y54134D01*
X44409Y205240D02*
X45591D01*
X45000Y204650D02*
Y205831D01*
X160538Y70055D02*
X161719D01*
X161129Y69465D02*
Y70646D01*
X95781Y70055D02*
X96962D01*
X96372Y69465D02*
Y70646D01*
X115909Y225917D02*
X117091D01*
X116500Y225326D02*
Y226507D01*
X117409Y105000D02*
X118591D01*
X118000Y104409D02*
Y105591D01*
M02*
