M48
;Layer_Color=9474304
;FILE_FORMAT=2:5
INCH,LZ
;TYPE=PLATED
T1F00S00C0.00800
T2F00S00C0.01000
T3F00S00C0.01181
T4F00S00C0.01400
T5F00S00C0.01500
T6F00S00C0.02000
T7F00S00C0.02800
T8F00S00C0.03000
T9F00S00C0.03346
T10F00S00C0.03543
T11F00S00C0.03937
T12F00S00C0.04000
T13F00S00C0.04331
T14F00S00C0.04528
T15F00S00C0.05197
T16F00S00C0.06700
T17F00S00C0.11800
T18F00S00C0.11811
T19F00S00C0.13386
%
T01
X0238998Y0053734
X02304Y00705
X0219Y006735
X0215268Y01028
X02009Y010495
X0197624Y0104914
X0205031Y0116419
X0079448Y0155174
X0064157Y0164157
X0081604Y02565
X024265Y0212764
T02
X0036703Y004601
X0059109Y0045478
X008001
X0101941
X0123445
X0145907Y0045199
X0168495
X0187676
X0204184Y0051878
X02096Y00491
X0223449Y0046905
X0219892Y0077144
X0241243Y0067361
X0272Y0099
X0251808Y0120825
X0172801Y01165
X016751Y0111787
X017435Y01354
X01455Y0083
X0150469Y020635
X0131Y0200413
X0109Y0194
X0070465Y0208
X00703Y01683
X01015Y02428
X0215431Y0257368
X02425Y0239961
T03
X0247764Y0045421
X025474Y01095
X0265Y0109
X02625Y0137657
X0262232Y0145877
X0264433Y0161447
X027Y01755
X02695Y01785
X02765Y0171
X0228Y0154
X02247Y01385
X0220765Y0139
X02169Y014275
X02308Y013585
X02245Y01235
X0224Y012
X02245Y0117
X02205Y0118
X0217558Y0107819
X023425Y0114887
X0191252Y0116259
X01854Y01165
X0189076Y01085
X019475Y012075
X01955Y01299
X019305Y0141
X01893Y01412
X0175391Y0142751
X016785Y014565
X0160604Y0145877
X0161461Y01395
X01575Y0138319
X0150469Y0132212
X0157614Y0121
X016705Y011795
X0178558Y008519
X0183246Y0069722
X0161129Y0070055
X0139787Y0070026
X0117727Y0070049
X0096372Y0070055
X007413Y0069978
X0118Y0105
X0128Y01435
X0133409Y0212
X0205031Y01405
X0208689Y0091898
X0206191Y0067928
X0052509Y0069778
X0045Y020524
X01165Y0225917
X0148Y0235775
X0183207Y0225036
X0215547Y0244
X0254751Y0220752
X02645Y022601
X027975Y02345
X0253514Y02899
X02349
T04
X0158Y02155
X01725Y0233776
X02095Y0245
T05
X0189284Y0155
X02881Y02489
X0291016
T06
X0247731Y0099673
X0246766Y0128591
X0121847Y0182761
X00747Y0140712
T07
X02305Y01696
X0296211Y0160584
Y01525
Y01435
T08
X0214Y00555
X02197
X0222658Y0096327
X0226139Y0094
X0189Y0096874
X0087834Y01745
T09
X01025Y0157
X01125
X01225
T10
X0025Y00555
X01305Y0086
X01405
X0025Y00855
Y00955
Y01055
Y01155
Y01255
Y01355
Y01455
Y01555
Y01655
Y01755
Y01855
Y01955
Y02055
Y00755
Y00655
Y02155
Y02255
Y02355
Y02455
X0217Y0289
X0227
T11
X016Y01615
Y01715
Y01815
X0159Y0245
X0169
X0179
X0089Y0221
X0079
X0069
T12
X02513Y0232
X02585Y02325
T13
X0069Y0245
X0089
T14
X02361Y002715
X02461
X0285673Y0053496
Y0063496
X0285252Y0074567
Y0084567
X0121198Y01181
X0107797
X0094395
X0101096Y01281
X0114498
T15
X0215Y0087
X020437
X019374
T16
X0069532Y000805
X0086032
X0102532
X0119032
X0135531
X0152032
X0168532
X0185031
X0201532
Y002975
X0185031
X0168532
X0152032
X0135531
X0119032
X0102532
X0086032
X0069532
T17
X0051032Y003195
X0220031
T18
X0025Y0025
X0275
X0025Y0275
X0275
T19
X0073466Y02805
X0101667
X0132823Y0280968
X0161024
M30
